<?xml version="1.0" encoding="UTF-8"?>
<svg width="420px" height="120px" viewBox="0 0 420 120" version="1.1" xmlns="http://www.w3.org/2000/svg" xmlns:xlink="http://www.w3.org/1999/xlink">
    <title>india-independence copy</title>
    <defs>
        <polygon id="path-1" points="0 0 300 0 300 119 0 119"></polygon>
        <polygon id="path-3" points="0.000523398738 0.746318157 137.846207 0.746318157 137.846207 138.591176 0.000523398738 138.591176"></polygon>
        <polygon id="path-5" points="0.000155457561 0.746072863 137.845839 0.746072863 137.845839 138.591176 0.000155457561 138.591176"></polygon>
        <polygon id="path-7" points="0 0 285 0 285 119 0 119"></polygon>
        <polygon id="path-9" points="0.1893125 0.610681053 184.883691 0.610681053 184.883691 59 0.1893125 59"></polygon>
    </defs>
    <g id="Archive" stroke="none" stroke-width="1" fill="none" fill-rule="evenodd">
        <g id="india-independence-copy">
            <g id="Mask" fill="#4ACFFF" fill-rule="nonzero">
                <polygon id="path-1" points="0 0 420 0 420 120 0 120"></polygon>
            </g>
            <g id="Group-11-Clipped" transform="translate(120.000000, 0.000000)">
                <mask id="mask-2" fill="white">
                    <use xlink:href="#path-1"></use>
                </mask>
                <g id="path-1"></g>
                <g id="Group-11" opacity="0.100000001" mask="url(#mask-2)">
                    <g transform="translate(192.000000, -29.000000)" id="Group">
                        <g id="Fill-1-Clipped">
                            <mask id="mask-4" fill="white">
                                <use xlink:href="#path-3"></use>
                            </mask>
                            <g id="path-3"></g>
                            <path d="M103.360073,9.97942324 C70.3949965,-9.03945618 28.2534671,2.26614971 9.23336118,35.2324526 C-9.78551824,68.1975291 1.52131412,110.339059 34.4863906,129.357938 C67.4526935,148.378044 109.594223,137.071211 128.613102,104.104909 C147.631982,71.1398321 136.326376,28.9983026 103.360073,9.97942324" id="Fill-1" fill="#FFFFFF" fill-rule="nonzero" mask="url(#mask-4)"></path>
                        </g>
                        <g id="Fill-4-Clipped">
                            <mask id="mask-6" fill="white">
                                <use xlink:href="#path-5"></use>
                            </mask>
                            <g id="path-5"></g>
                            <path d="M36.2803491,126.24859 C5.031105,108.220699 -5.685795,68.273325 12.3420962,37.0253074 C30.3724403,5.77606324 70.3185874,-4.93961029 101.566605,13.0870544 C132.815849,31.1173985 143.532749,71.0635456 125.503631,102.311563 C107.47574,133.560807 67.5295932,144.276481 36.2803491,126.24859 M128.612734,104.104663 C147.631614,71.1395868 136.326008,28.9980574 103.359705,9.97917794 C70.3946285,-9.03970147 28.2530991,2.26590441 9.23299324,35.2322074 C-9.78588618,68.1972838 1.52094618,110.338813 34.4860226,129.357693 C67.4523256,148.377799 109.593855,137.070966 128.612734,104.104663" id="Fill-4" fill="#0E6EE3" fill-rule="nonzero" mask="url(#mask-6)"></path>
                        </g>
                        <path d="M71.755351,129.858275 C71.7909318,127.616686 70.009439,125.764032 67.766623,125.718636 C65.5250339,125.672013 63.6699257,127.44369 63.6085795,129.681598 C63.2061486,129.646018 62.8049447,129.605529 62.4037407,129.56136 C63.4466256,125.370189 65.6931224,115.571979 67.0366035,104.005772 C68.2242654,93.7928616 68.4083039,84.7651591 68.3997155,79.8182039 C68.8536771,79.8537846 69.3076388,79.8660539 69.7591466,79.8366077 C69.8119043,84.7909245 70.1112736,93.80145 71.4228548,103.977553 C72.908659,115.515541 75.2741674,125.275716 76.3710369,129.459525 C74.8410634,129.650925 73.3012745,129.78466 71.755351,129.858275 M76.9881794,129.377321 C76.9894063,125.051189 76.8004601,115.011275 75.3146558,103.476968 C74.0043016,93.3069999 72.0105511,84.5185475 70.8057123,79.7114615 C71.3369701,79.6182154 71.8584126,79.4771192 72.3651319,79.2955345 C73.7368323,84.0584512 76.4262484,92.6579574 80.3965726,102.108948 C84.9006085,112.824898 89.7764021,121.598627 91.9505104,125.343197 C90.7432178,125.843782 89.5199751,126.303878 88.2844632,126.723486 C88.2832363,126.719805 88.2832363,126.717351 88.2820094,126.714898 C87.6992208,124.542016 85.4637663,123.251293 83.289658,123.835308 C81.1204574,124.41687 79.8309609,126.647417 80.4088418,128.817844 C79.2751646,129.038691 78.1328989,129.222729 76.9881794,129.377321 M92.5271644,125.103947 C91.3738564,120.931181 88.5188056,111.307193 84.0147698,100.58879 C80.0444456,91.1377993 75.7833406,83.2008317 73.3405361,78.886969 C73.7687323,78.6771651 74.1772978,78.4256458 74.5723672,78.149588 C77.0838794,82.4192815 81.832073,90.0875529 88.0390786,98.2637705 C95.0718036,107.527042 101.981836,114.812514 105.017245,117.896999 C103.982948,118.674868 102.924113,119.414703 101.845648,120.120184 C101.834605,120.100553 101.826017,120.078469 101.814975,120.058838 C100.705836,118.100668 98.2176352,117.412364 96.2606924,118.52273 C94.3025226,119.631869 93.6129916,122.117616 94.7233573,124.077012 C94.7294919,124.086828 94.7343996,124.095416 94.7405343,124.105231 C94.0092879,124.452451 93.2719069,124.786174 92.5271644,125.103947 M105.512922,117.51788 C103.357217,113.765948 98.1967775,105.152945 91.1652794,95.8909006 C84.9521393,87.7073214 78.835926,81.0672119 75.4005405,77.5054532 C75.8029713,77.1520993 76.1759561,76.7594838 76.5194946,76.3325144 C80.0689841,79.7691269 86.7090936,85.9123325 94.9061689,92.1561457 C104.142448,99.1950054 112.73582,104.365261 116.493886,106.532007 C115.435051,107.912296 114.322232,109.233693 113.165243,110.501105 C113.137024,110.467978 113.111259,110.436078 113.083039,110.406632 C111.524847,108.780958 108.945854,108.7282 107.32018,110.286393 C105.69696,111.844586 105.642976,114.423579 107.202395,116.048025 C107.22448,116.072564 107.250245,116.092195 107.27233,116.115506 C106.694449,116.595233 106.106753,117.062691 105.512922,117.51788 M116.871779,106.03265 C113.786066,102.983745 106.520226,96.0724853 97.2851734,89.0360795 C89.0721481,82.7775431 81.3732036,77.9974495 77.1231409,75.490845 C77.2004371,75.3693796 77.2863218,75.2528218 77.3587102,75.1276757 C77.5488834,74.7988602 77.7096103,74.4639101 77.8556142,74.1228254 C82.1608885,76.5104183 90.2058253,80.7334887 99.7942318,84.6473744 C110.537173,89.0336256 120.17343,91.7856149 124.370735,92.9008882 C123.856654,94.1400809 123.294723,95.3694582 122.691077,96.5865662 C122.638319,96.5522123 122.588015,96.5154046 122.532803,96.4847315 C120.583222,95.3596428 118.091341,96.028316 116.967479,97.9778973 C115.84239,99.9262517 116.511063,102.41936 118.459418,103.544449 C118.506041,103.568987 118.551437,103.589845 118.596833,103.613157 C118.03981,104.437649 117.464383,105.243738 116.871779,106.03265 M124.606304,92.3156458 C120.82738,90.1746644 112.01807,85.3994785 101.277582,81.0132273 C91.6646373,77.0895262 82.9412118,74.4724985 78.2040605,73.168279 C78.3660144,72.6419288 78.4862529,72.110671 78.5537336,71.5745054 C83.3203311,72.7143173 92.2511066,74.6393601 102.60634,75.842972 C114.132059,77.1815454 124.151115,77.2465724 128.494424,77.1925878 C128.289528,78.8980113 128.007336,80.5997541 127.652755,82.2929084 C127.56687,82.2646892 127.483439,82.2327891 127.395101,82.2082507 C125.2259,81.6082851 122.981857,82.8806047 122.381892,85.0498053 C121.780699,87.2190059 123.053019,89.4630488 125.22222,90.0630144 C125.297062,90.0838721 125.371904,90.0973682 125.446747,90.1133182 C125.182958,90.8519261 124.900766,91.5856263 124.606304,92.3156458 M128.368051,75.5632335 C128.469886,75.5656873 128.569267,75.5595527 128.668647,75.5534181 C128.635521,75.8920489 128.601167,76.2294529 128.564359,76.5656299 C124.347423,75.5178373 114.581113,73.2836098 103.059075,71.9450363 C92.6707145,70.7365168 83.5105042,70.5672013 78.6224414,70.5831513 C78.6310298,70.1279627 78.5979029,69.675228 78.5402375,69.2249471 C83.4111234,69.1844586 92.6081414,68.9022662 103.030856,67.560012 C114.519767,66.0791155 124.246815,63.7271033 128.46007,62.6228722 C128.658832,64.2203265 128.795021,65.8275962 128.866182,67.4385466 C128.756986,67.4275043 128.64779,67.4176889 128.53614,67.4152351 C126.287189,67.3673851 124.424719,69.1537855 124.378096,71.4039631 C124.3327,73.6541406 126.117874,75.5166104 128.368051,75.5632335 M127.48712,58.7605173 C127.604905,58.7286173 127.717782,58.6905827 127.830659,58.6500942 C128.04537,59.758006 128.224501,60.8732794 128.375413,61.9934605 C124.021062,61.9946874 114.017955,62.1860875 102.529044,63.666984 C92.0744297,65.0141459 83.081081,67.0827388 78.3733759,68.2753084 C78.2519105,67.7538659 78.0875027,67.2446927 77.8801527,66.7490157 C82.5326463,65.4239384 91.3922603,62.690353 101.162251,58.5838403 C111.834031,54.0994352 120.575861,49.2469531 124.347423,47.0593487 C124.857823,48.2936336 125.327735,49.5438686 125.754704,50.8063728 C125.628331,50.8284574 125.501958,50.8542228 125.375585,50.8885767 C123.201477,51.4713653 121.91198,53.7068198 122.494769,55.880928 C123.078784,58.0550363 125.313012,59.3433059 127.48712,58.7605173 M122.7377,44.4472287 C122.857938,44.3772941 122.975723,44.3036787 123.0886,44.2239287 C123.440727,44.9674443 123.780585,45.7146406 124.103265,46.4691985 C119.90228,47.6323219 110.316327,50.4812381 99.6420933,54.9668701 C89.8414291,59.0844251 81.6676653,63.5148455 77.4764949,65.9048923 C77.250741,65.4865115 77.0016755,65.0791729 76.7133485,64.6963728 C80.8664843,62.2719721 88.8181749,57.3937246 97.3183003,50.9425613 C106.543538,43.9380555 113.805697,37.0562421 116.912267,34.0012028 C117.685229,35.0318185 118.421383,36.0845187 119.123183,37.1568498 C118.986995,37.2157421 118.852033,37.281996 118.719525,37.3556114 C116.761356,38.4659771 116.073052,40.9517239 117.18219,42.9111206 C118.292556,44.8680635 120.778303,45.5563675 122.7377,44.4472287 M108.945854,31.8491791 C110.505273,33.4736257 113.084266,33.5263834 114.708713,31.9694176 C114.824044,31.8589945 114.928332,31.7412099 115.02894,31.6209714 C115.541794,32.2368869 116.039925,32.8626179 116.525786,33.4957103 C112.749316,35.6661379 104.169441,40.8130816 94.9442035,47.8163604 C86.4207666,54.2871545 79.5696262,60.656114 76.1281061,63.9957995 C75.7698444,63.6080917 75.3686405,63.2522839 74.9404442,62.9210146 C78.2715413,59.5052598 84.6858969,52.6381695 91.2094487,44.0754709 C98.2237698,34.8698646 103.381756,26.3071661 105.561999,22.5282419 C106.907934,23.5625384 108.198657,24.6471387 109.436623,25.7759082 C109.307796,25.8728352 109.183877,25.9746698 109.066092,26.0887737 C107.441645,27.6457395 107.388888,30.2259594 108.945854,31.8491791 M70.4805776,61.0389141 C71.594624,56.4551282 73.6386784,47.1906295 74.8962749,36.3765265 C76.2323945,24.8716657 76.2998753,14.8661052 76.2458907,10.511754 C77.8482527,10.7056079 79.4469339,10.9669426 81.0382536,11.2933042 C80.9744535,11.4491235 80.9155612,11.6086235 80.870165,11.7754851 C80.2677457,13.9434588 81.5412922,16.1887286 83.7092658,16.7899211 C85.8796934,17.3898867 88.1237363,16.118794 88.7237018,13.9483665 C88.769098,13.7839588 88.8022249,13.6183241 88.8255365,13.4526894 C89.6721136,13.7508318 90.5137831,14.068605 91.3517718,14.4072359 C89.202202,18.2033369 84.4405122,26.9917893 80.0665302,37.7052846 C75.9649252,47.7537873 73.292686,56.8293398 72.0510395,61.3959488 C71.5332779,61.2303141 71.0093816,61.1137564 70.4805776,61.0389141 M105.052826,22.1417611 C101.989198,25.2471042 95.1012497,32.4933139 88.0881555,41.6976934 C81.5449729,50.2837034 76.6188754,58.3114633 74.2165594,62.4167491 C74.1073632,62.3492683 74.0055285,62.274426 73.8938785,62.2081721 C73.5552476,62.0130913 73.2092552,61.8486835 72.8571282,61.7002258 C75.1711058,57.5618131 79.6039801,49.2199608 83.6994504,39.188635 C88.0746593,28.4726859 90.8241947,18.8621948 91.9443758,14.6477128 C93.1124069,15.1323476 94.2706226,15.6611516 95.4190229,16.2279902 C95.320869,16.3568172 95.2288498,16.4942326 95.1441921,16.6377826 C94.0191033,18.5885908 94.6877765,21.0792454 96.6373579,22.2043342 C98.5869392,23.328196 101.078821,22.6607497 102.203909,20.7111684 C102.286113,20.5676183 102.356048,20.4216144 102.419848,20.2743836 C103.319183,20.876803 104.196433,21.5000801 105.052826,22.1417611 M66.116411,10.1485847 C66.0955533,10.3080847 66.0783764,10.4688117 66.0746956,10.6344464 C66.0292994,12.883397 67.814473,14.7458667 70.0646505,14.7924898 C72.3148281,14.8391129 74.1772978,13.0527124 74.2239209,10.8025349 C74.2276017,10.6319925 74.2165594,10.4651309 74.1993824,10.3019501 C74.671748,10.3424386 75.1428865,10.3890617 75.6140251,10.4405925 C74.5625518,14.6697975 72.3344589,24.4201578 70.9983393,35.9225649 C69.7382889,46.7550717 69.6070081,56.2514589 69.6389081,60.9628448 C69.1849464,60.9383064 68.7322117,60.9493487 68.2831577,60.992291 C68.2573923,56.2894935 68.0083269,46.782064 66.613315,35.9507841 C65.1336453,24.4704617 62.784087,14.7520013 61.6798559,10.5326117 C63.152164,10.351027 64.6318337,10.2209732 66.116411,10.1485847 M61.0467634,10.6160425 C61.0479904,14.9777552 61.2406173,24.9735003 62.720287,36.4513688 C64.1165258,47.2887834 66.2869533,56.5520552 67.4549844,61.1063949 C66.933542,61.2020949 66.4194611,61.3382834 65.9213302,61.521095 C64.6465567,56.9974284 61.871256,47.8948835 57.6371433,37.8193885 C53.1515113,27.1451547 48.2965753,18.4008716 46.1101978,14.6317628 C47.2144289,14.1753473 48.3297022,13.7496049 49.4584718,13.3618971 C49.4817833,13.5066741 49.5100026,13.651451 49.5492641,13.7950011 C50.1320527,15.9691094 52.3675072,17.2586059 54.5416155,16.6758172 C56.7144969,16.0918017 58.0039934,13.8575742 57.4199778,11.6834659 C57.3807163,11.5337812 57.3304124,11.3877773 57.2752009,11.2454542 C58.5254358,10.9963888 59.7818054,10.7865849 61.0467634,10.6160425 M45.5212745,14.8746937 C46.683171,19.0744525 49.5333141,28.662859 54.020173,39.3407735 C58.2530588,49.4150416 62.8147601,57.7667093 65.1520492,61.8437758 C64.7238529,62.0449913 64.3103797,62.2830144 63.9116296,62.5492568 C61.549802,58.4820057 56.5979391,50.3609996 49.9958642,41.6633395 C42.98277,32.42706 36.0923681,25.1563119 33.0434634,22.0583303 C33.9562944,21.373707 34.8887562,20.7185299 35.8359411,20.0903451 C35.8899257,20.2130375 35.9488181,20.332049 36.0162988,20.4510606 C37.1254376,22.4092304 39.6124114,23.0975344 41.5705811,21.9883956 C43.5287509,20.8792569 44.217055,18.3910562 43.1066893,16.4341133 C43.0367546,16.3089671 42.9594585,16.1887286 42.8784815,16.0746248 C43.7508241,15.65379 44.632982,15.253813 45.5212745,14.8746937 M32.5404248,22.4399034 C34.7059446,26.2090122 39.8565691,34.798703 46.8696634,44.0374363 C53.4668306,52.7265079 59.9511208,59.6708945 63.2368217,63.0437069 C62.8258024,63.3749763 62.4331869,63.7369187 62.0773791,64.1405765 C58.698432,60.8413794 51.7810378,54.3644507 43.1287739,47.7721912 C33.9023098,40.74192 25.3199805,35.5753455 21.5557795,33.404918 C22.5029644,32.17186 23.4943185,30.9841981 24.5224803,29.8431593 C24.5948688,29.9327247 24.6684842,30.0210632 24.7482342,30.104494 C26.3064269,31.7301675 28.8866469,31.7816983 30.5098666,30.2247325 C32.1343132,28.6653129 32.1882978,26.0863198 30.6288781,24.4631002 C30.5393127,24.3686271 30.4460665,24.2827424 30.3503665,24.2005385 C31.0681167,23.5944384 31.7993631,23.007969 32.5404248,22.4399034 M21.1717525,33.9067297 C24.2648264,36.9605421 31.5233053,43.8632132 40.7497694,50.8934844 C49.3897641,57.4759285 57.4604663,62.4216568 61.5448943,64.8080228 C61.342452,65.0840806 61.149825,65.3711807 60.9768288,65.6742307 C60.8921711,65.8214616 60.8234634,65.9723731 60.7473941,66.1208309 C56.6077545,63.8068533 48.2683561,59.373979 38.2419379,55.2821894 C27.4928619,50.8934844 17.8529246,48.1402682 13.6580735,47.0262218 C14.098539,45.9710676 14.5733583,44.9220481 15.0776239,43.8840709 C15.1500123,43.9319209 15.2211739,43.9822248 15.2972431,44.026394 C17.2480514,45.1514828 19.7387059,44.4828095 20.8637947,42.5320013 C21.9888834,40.58242 21.3214371,38.0917655 19.3706289,36.9666767 C19.2835173,36.9163728 19.1951788,36.8746574 19.1068403,36.8317151 C19.7706059,35.8305456 20.457683,34.8539146 21.1717525,33.9067297 M13.4237311,47.6090104 C17.2002014,49.7499917 26.0119653,54.5288584 36.7585875,58.9151096 C46.7604672,62.9983108 55.8004389,65.6656423 60.3879056,66.9134234 C60.1854632,67.4201428 60.0247362,67.9354506 59.91554,68.456893 C55.270408,67.3342581 46.1052901,65.3257845 35.4298295,64.0853649 C23.8795724,62.7431107 13.842112,62.6817645 9.51352616,62.7357492 C9.69633775,61.2315411 9.93558782,59.7310137 10.2349571,58.2353941 C10.3024379,58.2574787 10.3674649,58.2820172 10.4349456,58.3016479 C12.6041462,58.9016135 14.8494161,57.6305208 15.4493816,55.4600933 C16.0505741,53.2921196 14.7794815,51.0468498 12.6090539,50.4468842 C12.5317578,50.4260265 12.4544616,50.4113035 12.3771654,50.3941265 C12.7010732,49.4616647 13.0495194,48.5328837 13.4237311,47.6090104 M9.4632223,64.9478921 C9.40432998,64.9466652 9.34666458,64.9515729 9.28777226,64.9527998 C9.33316842,64.420315 9.38469921,63.8866033 9.44359153,63.3553455 C13.6470311,64.4006842 23.4292915,66.6422733 34.9758678,67.9833006 C45.6194284,69.2200394 54.9808541,69.3697241 59.77199,69.3439587 C59.7204592,69.7966934 59.7106438,70.2494282 59.72414,70.700936 C54.9170541,70.7352898 45.5899823,71.0039861 35.0028601,72.3695518 C23.4759146,73.8541291 13.7231004,76.2171836 9.53315694,77.316507 C9.35893381,75.9116797 9.23501455,74.5019447 9.16017222,73.0860751 C9.20556839,73.087302 9.24973763,73.0946636 9.29390687,73.0946636 C11.5440844,73.1412866 13.4053272,71.3548862 13.4519503,69.1047086 C13.4998003,66.8545311 11.7121729,64.9945152 9.4632223,64.9478921 M66.244011,75.4687604 C63.4453987,73.8541291 62.4847177,70.2751935 64.1005758,67.4765812 C65.7139801,64.6779689 69.2916888,63.7185148 72.0903011,65.333146 C74.8901403,66.9477772 75.8495944,70.5267128 74.2349632,73.3240982 C72.620332,76.1227105 69.0426233,77.0821647 66.244011,75.4687604 M10.3429264,81.7506082 C10.3147072,81.7579698 10.2864879,81.770239 10.2570418,81.7776006 C10.0018417,80.5040541 9.78713009,79.2219191 9.61413388,77.9348764 C13.9476274,77.9348764 23.9801801,77.7459302 35.5046718,76.2613529 C46.0611208,74.9019217 55.126858,72.8051096 59.7989823,71.6186747 C59.868917,72.1499325 59.9817939,72.6726019 60.1388401,73.183002 C55.4826657,74.5105332 46.6328672,77.2416647 36.8726914,81.3432697 C26.1542884,85.8485325 17.3793322,90.725553 13.6359888,92.8996613 C13.1918426,91.8224226 12.7746886,90.7341415 12.3931154,89.6348181 C12.4139731,89.6299104 12.4348308,89.6274566 12.4556885,89.621322 C14.6285699,89.0373064 15.9180664,86.8043058 15.3365047,84.6301975 C14.7524891,82.4560892 12.5182616,81.1665927 10.3429264,81.7506082 M15.0935739,96.0626699 C15.0825315,96.0712583 15.0714892,96.0786199 15.0579931,96.0872083 C14.642066,95.2246812 14.2482236,94.3547925 13.874012,93.4750884 C18.0455516,92.3217804 27.6719927,89.4667296 38.3940764,84.9614668 C48.1235791,80.873358 56.247039,76.4785183 60.4652017,74.0762023 C60.6504672,74.5166678 60.8590442,74.946091 61.1105635,75.3546565 C56.90467,77.8195456 49.0781255,82.6389008 40.7166425,88.9857756 C31.4435553,96.0270891 24.1494956,102.94571 21.0723717,105.976211 C20.3828407,105.056019 19.7239828,104.118649 19.0908903,103.164103 C19.0982519,103.160422 19.1056134,103.157968 19.111748,103.154287 C21.0686909,102.045148 21.7582218,99.5581747 20.6490831,97.6000049 C19.5387174,95.6418351 17.0517436,94.954758 15.0935739,96.0626699 M28.88542,108.66072 C27.3260003,107.036273 24.7470073,106.982288 23.1225607,108.541708 L23.1139722,108.550296 C22.5422259,107.8669 21.9876565,107.172461 21.4465833,106.468207 C25.1923805,104.318638 33.8164252,99.15329 43.0907393,92.1107496 C51.4264569,85.7835055 58.1561319,79.5580961 61.6675867,76.1607452 C61.9939483,76.5852607 62.3607984,76.9815569 62.7607754,77.349634 C59.3487014,80.8696772 53.139242,87.5662252 46.8254941,95.852866 C39.7706845,105.11123 34.5918408,113.723006 32.4336825,117.466349 C31.1650437,116.492172 29.9454818,115.472598 28.7737699,114.413763 C30.3884011,112.854344 30.4399319,110.281485 28.88542,108.66072 M67.3641921,79.6771077 C66.2194726,84.4866475 64.3263297,93.3266307 63.1386679,103.553037 C61.7951867,115.121698 61.7350675,125.176336 61.7890521,129.492652 C60.1781017,129.298798 58.570832,129.036237 56.96847,128.707421 C57.5500317,126.546809 56.2813929,124.318716 54.1220077,123.721204 C51.9638494,123.123693 49.7333026,124.378835 49.118614,126.527178 C48.2904407,126.233944 47.4647212,125.922305 46.6439095,125.589809 C48.7763024,121.830515 53.5698921,112.999121 57.9684126,102.224279 C61.871256,92.6604113 64.4809221,83.9774742 65.7937301,79.223146 C66.3102649,79.4231345 66.8341612,79.575273 67.3641921,79.6771077 M32.9269057,117.841787 C35.9647681,114.767117 42.8932046,107.490235 49.9467873,98.2318705 C56.2421313,89.9673144 61.0430827,82.2254276 63.536191,77.9925418 C63.8232911,78.2047996 64.1226604,78.4084689 64.4416605,78.5925074 C64.5766221,78.6710305 64.7189452,78.7336036 64.8563606,78.8047651 C62.4712215,83.1112663 58.2469242,91.1537493 54.3354924,100.740929 C49.9345181,111.518224 47.1776212,121.1827 46.0697093,125.359147 C44.9397128,124.888009 43.8170779,124.378835 42.7054853,123.835308 C43.8011279,121.890635 43.1300008,119.423292 41.1926887,118.306791 C39.2541497,117.187837 36.7794452,117.844241 35.645768,119.769284 C34.7182139,119.148461 33.8102905,118.50678 32.9269057,117.841787 M37.022376,125.426628 C67.6341152,143.086964 106.765611,132.58818 124.427173,101.976441 C142.086282,71.3659285 131.588725,32.2344331 100.976986,14.5728705 C70.3664737,-3.0862382 31.2349783,7.41131854 13.5734157,38.0218308 C-4.08691989,68.63357 6.41186377,107.765065 37.022376,125.426628" id="Fill-7" fill="#0E6EE3" fill-rule="nonzero"></path>
                        <path d="M64.6696077,68.5014911 C66.0505042,66.1098976 69.1062944,65.2902136 71.4977271,66.6699301 C73.8891598,68.0496467 74.7100614,71.1069153 73.3304376,73.4985089 C71.9508139,75.8901024 68.8924782,76.7097864 66.5010455,75.3300699 C64.1108855,73.9503533 63.2899839,70.8930847 64.6696077,68.5014911" id="Fill-9" fill="#0E6EE3" fill-rule="nonzero"></path>
                    </g>
                </g>
            </g>
            <g id="Group-33-Clipped" transform="translate(135.000000, 1.000000)">
                <mask id="mask-8" fill="white">
                    <use xlink:href="#path-7"></use>
                </mask>
                <g id="path-1"></g>
                <g id="Group-33" mask="url(#mask-8)">
                    <g transform="translate(0.000000, 19.000000)" id="Group">
                        <path d="M98.1031689,57.1941883 C123.676088,55.0548837 147.510507,65.8511865 172.804841,55.9328207 C174.52143,55.2594637 176.244279,54.4926024 177.766171,53.4809981 C178.612571,52.9180893 179.396993,52.2798749 180.081876,51.5368604 C180.51384,51.068711 180.893218,50.5491028 181.214374,50 C182.751291,50.3495432 183.983328,51.1113841 184.673845,52.4882202 C184.772133,52.6840146 184.850387,52.8848293 184.921129,53.0881543 C185.708682,55.3812077 184.753352,58.1223289 182.994818,60.0313241 C181.078524,62.1085017 178.389076,63.3792825 175.717157,64.4266569 C150.422198,74.3450227 126.587779,63.5493475 101.014859,65.6880245 C65.3051754,68.6757714 38.049473,100.403246 3.11169055,109 L0.2,100.506164 C35.1371564,91.90941 62.3928588,60.1813076 98.1031689,57.1941883" id="Fill-1" fill="#FEA600" fill-rule="nonzero"></path>
                        <path d="M100.703125,65.1935607 C126.276033,63.0548837 150.110441,73.8505589 175.404763,63.9321931 C177.121977,63.2594637 178.844826,62.4926024 180.366091,61.4803706 C181.213117,60.9174617 181.997539,60.2792474 182.682421,59.5362328 C183.113759,59.068711 183.493136,58.5491028 183.814918,58 C185.351835,58.3489156 186.583872,59.1107566 187.274388,60.4875927 C187.37205,60.683387 187.45093,60.8848293 187.521046,61.0881543 C188.308598,63.3805801 187.353895,66.1217014 185.594736,68.0306966 C183.679069,70.1085017 180.989622,71.3786549 178.317078,72.4266569 C153.02213,82.3450227 129.187722,71.5487199 103.61544,73.6880245 C67.9051461,76.6751439 40.649456,108.403246 5.71231528,117 L2.8,108.505536 C37.7377668,99.9087825 64.9928308,68.1813076 100.703125,65.1935607" id="Fill-3" fill="#FFFFFF" fill-rule="nonzero"></path>
                        <g id="Fill-5-Clipped" transform="translate(6.900000, 66.000000)">
                            <mask id="mask-10" fill="white">
                                <use xlink:href="#path-9"></use>
                            </mask>
                            <g id="path-7"></g>
                            <path d="M96.931187,7.53042837 C122.461187,5.41325995 146.256187,16.0978494 171.508687,6.28211258 C173.223062,5.61572311 174.943062,4.85679679 176.462437,3.85565995 C177.307437,3.29857574 178.090562,2.66634416 178.774312,1.93101784 C179.204937,1.46833363 179.584312,0.954102053 179.904937,0.410681 C181.439312,0.756607316 182.669312,1.51056521 183.358687,2.87315468 C183.456812,3.06692311 183.534937,3.26565995 183.604937,3.466881 C184.391812,5.73620732 183.438062,8.44896521 181.681812,10.3382073 C179.769312,12.3945126 177.084312,13.6509021 174.416812,14.6880599 C149.163687,24.5037968 125.368687,13.8198284 99.838062,15.9363757 C64.186812,18.8932073 36.976812,50.2923863 2.096812,58.8001863 L-0.810688,50.3942389 C34.069312,41.8864389 61.279937,10.4866389 96.931187,7.53042837" id="Fill-5" fill="#20C04A" fill-rule="nonzero" mask="url(#mask-10)"></path>
                        </g>
                        <path d="M185.028116,53.3183871 C184.283302,51.7540997 182.956266,50.8885368 181.3,50.4914046 C182.249907,48.7795294 182.696526,46.8017112 182.329516,45 L185.3,54 L185.294603,54 C185.218367,53.7689931 185.134036,53.5408382 185.028116,53.3183871" id="Fill-8" fill="#EA7E2D" fill-rule="nonzero"></path>
                        <path d="M146.14177,46.6445951 C145.698353,45.1677278 145.70498,43.8180721 146.054412,42.588359 C147.652761,43.9888993 149.725856,44.9557082 151.885707,45.4124588 C155.517991,46.1799695 159.369574,45.7014111 163.066925,44.9096697 C167.431208,43.9743608 179.489018,39.0258255 182.29351,44.6328328 L182.685717,45.765017 C183.013461,47.2957978 182.614626,48.9762039 181.76635,50.4306577 C179.790855,49.9811763 177.289405,50.2434748 174.801811,50.7553504 C171.296648,51.4762168 167.817391,52.6913914 165.869609,53.108767 C162.172259,53.9011142 158.320073,54.3796725 154.688392,53.6115561 C151.056107,52.8440455 147.656979,50.6438887 146.37854,47.337596 L146.14177,46.6445951 Z" id="Fill-10" fill="#EA7E2D" fill-rule="nonzero"></path>
                        <path d="M187.628745,61.3177281 C186.883806,59.7535646 185.556545,58.8880703 183.9,58.4916825 C184.850067,56.77923 185.296086,54.8015684 184.92969,53 L187.9,61.9992871 L187.894602,62 C187.819028,61.7690114 187.734008,61.5401616 187.628745,61.3177281" id="Fill-12" fill="#BAC4D3" fill-rule="nonzero"></path>
                        <path d="M148.641766,54.644316 C148.198354,53.1674846 148.204981,51.8178618 148.554409,50.5887843 C150.153346,51.9892905 152.226421,52.956076 154.385649,53.4122097 C158.017898,54.1797017 161.870047,53.701155 165.567362,52.9094328 C169.931002,51.9741467 181.988696,47.0257317 184.793162,52.6332084 L185.185968,53.7647593 C185.513105,55.2955029 185.114877,56.9758681 184.266609,58.4308923 C182.29053,57.9808162 179.789706,58.2431082 177.302137,58.7549714 C173.796404,59.476426 170.317181,60.6909653 168.369418,61.1089365 C164.672102,61.9006587 160.820556,62.3798111 157.188307,61.6117134 C153.556057,60.8436157 150.156961,58.6435124 148.878534,55.3379058 L148.641766,54.644316 Z" id="Fill-14" fill="#BAC4D3" fill-rule="nonzero"></path>
                        <path d="M186.6,66.3914046 C187.550067,64.6795294 187.996761,62.7017112 187.62969,60.9 L190.6,69.9 L190.594602,69.9 C190.519028,69.6689931 190.434683,69.4408382 190.328745,69.2183871 C189.583806,67.6540997 188.256545,66.7885368 186.6,66.3914046 Z" id="Fill-16" fill="#3A983C" fill-rule="nonzero"></path>
                        <path d="M151.341678,62.6445951 C150.898267,61.1677278 150.904894,59.8174664 151.254923,58.588359 C152.853251,59.9888993 154.926317,60.9557082 157.085535,61.4124588 C160.717768,62.1799695 164.5699,61.7014111 168.267199,60.9096697 C172.63082,59.9743608 184.689064,55.0258255 187.493517,60.6328328 L187.885719,61.765017 C188.213458,63.2957978 187.814629,64.9762039 186.966365,66.4306577 C184.990897,65.9805706 182.489482,66.2434748 180.001923,66.7553504 C176.496808,67.4762168 173.016997,68.6913914 171.069243,69.108767 C167.371943,69.9011142 163.520414,70.3796725 159.888783,69.6115561 C156.256549,68.8434397 152.856865,66.6438887 151.578445,63.337596 L151.341678,62.6445951 Z" id="Fill-18" fill="#3A983C" fill-rule="nonzero"></path>
                        <path d="M142.331455,38.6378265 C139.808827,29.9855556 152.297864,25.5475455 159.055639,24.2884066 C180.651708,20.2646776 202.668111,21.5864914 224.5074,20.1330603 C246.346065,18.6783757 269.249285,13.9012943 286.098198,0 L289,8.48367537 C272.14984,22.3849697 249.24662,27.1614243 227.407955,28.6161089 C205.568666,30.0701667 183.552887,28.748353 161.956818,32.772082 C156.369617,33.8137389 146.865326,37.0283349 145.165904,43 C144.047092,42.0197645 143.151543,40.8358355 142.613965,39.463255 L142.331455,38.6378265 Z" id="Fill-20" fill="#FEA600" fill-rule="nonzero"></path>
                        <path d="M143.4,37 C143.806988,38.5966448 144.484986,39.9752006 145.332011,41.1159737 C145.058168,42.5966448 145.052502,44.221736 145.4,46 L143.4,37 Z" id="Fill-22" fill="#FEA600" fill-rule="nonzero"></path>
                        <path d="M145.431596,46.1371997 C142.908335,37.4855556 155.398037,33.0475455 162.155211,31.7877799 C183.751351,27.7646776 205.767827,29.0864914 227.607187,27.6324335 C249.445924,26.177749 272.34922,21.4012943 289.198812,7.5 L292.1,15.9830486 C275.249785,29.8843429 252.347112,34.6614243 230.507752,36.1154822 C208.669015,37.56954 186.652539,36.2477262 165.057023,40.272082 C159.469804,41.3131122 149.964858,44.5277081 148.26543,50.5 C147.146614,49.5191377 146.251063,48.3358355 145.713482,46.9626283 L145.431596,46.1371997 Z" id="Fill-24" fill="#FFFFFF" fill-rule="nonzero"></path>
                        <path d="M146.5,44.8 C146.906988,46.3973742 147.584986,47.7752006 148.432011,48.9167031 C148.158168,50.3966448 148.152502,52.021736 148.5,53.8 L146.5,44.8 Z" id="Fill-26" fill="#FFFFFF" fill-rule="nonzero"></path>
                        <g id="Group-30" transform="translate(148.000000, 16.000000)" fill="#20C04A" fill-rule="nonzero">
                            <path d="M0.390796192,38.2330757 C-2.12938177,29.7528614 10.3450631,25.4031043 17.0946055,24.1690043 C38.6637411,20.22529 60.6539445,21.5208186 82.4660038,20.0956757 C104.278063,18.6705329 127.153381,13.9884471 143.982389,0.36359 L146.880656,8.67856143 C130.051025,22.3034186 107.175707,26.9855043 85.3636479,28.4106471 C63.5509657,29.8351757 41.5620081,28.5402614 19.9922496,32.48459 C14.4118555,33.5043043 4.91914365,36.65559 3.22179195,42.5085043 C2.10371992,41.5477614 1.20988517,40.3873757 0.672338565,39.04209 L0.390796192,38.2330757 Z" id="Fill-28"></path>
                        </g>
                        <path d="M149.3,54.4 C149.70746,55.9966448 150.384986,57.3752006 151.232483,58.5159737 C150.958168,59.9959154 150.952502,61.621736 151.3,63.4 L149.3,54.4 Z" id="Fill-31" fill="#20C04A" fill-rule="nonzero"></path>
                    </g>
                </g>
            </g>
        </g>
    </g>
</svg>