<?xml version="1.0"?>
<svg xmlns="http://www.w3.org/2000/svg" xmlns:xlink="http://www.w3.org/1999/xlink" xmlns:svgjs="http://svgjs.com/svgjs" version="1.1" width="512" height="512" x="0" y="0" viewBox="0 0 24 24" style="enable-background:new 0 0 512 512" xml:space="preserve"><g><path xmlns="http://www.w3.org/2000/svg" d="M19,1H5A5.006,5.006,0,0,0,0,6v8a5.006,5.006,0,0,0,5,5h6v2H7a1,1,0,0,0,0,2H17a1,1,0,0,0,0-2H13V19h6a5.006,5.006,0,0,0,5-5V6A5.006,5.006,0,0,0,19,1ZM5,3H19a3,3,0,0,1,3,3v7H2V6A3,3,0,0,1,5,3ZM19,17H5a3,3,0,0,1-2.816-2H21.816A3,3,0,0,1,19,17Z" fill="#008fff" data-original="#000000"/></g></svg>
