<?xml version="1.0"?>
<svg xmlns="http://www.w3.org/2000/svg" xmlns:xlink="http://www.w3.org/1999/xlink" xmlns:svgjs="http://svgjs.com/svgjs" version="1.1" width="512" height="512" x="0" y="0" viewBox="0 0 24 24" style="enable-background:new 0 0 512 512" xml:space="preserve"><g><g xmlns="http://www.w3.org/2000/svg" id="_01_align_center" data-name="01 align center"><path d="M22,15V3H2V15H0v3a3,3,0,0,0,3,3H21a3,3,0,0,0,3-3V15ZM4,5H20V15H14.921l-.847,1H9.925l-.846-1H4ZM22,18a1,1,0,0,1-1,1H3a1,1,0,0,1-1-1V17H8.151L9,18h6l.847-1H22Z" fill="#008fff" data-original="#000000"/></g></g></svg>
