<?xml version="1.0" standalone="no"?>
<!DOCTYPE svg PUBLIC "-//W3C//DTD SVG 20010904//EN"
 "http://www.w3.org/TR/2001/REC-SVG-20010904/DTD/svg10.dtd">
<svg version="1.0" xmlns="http://www.w3.org/2000/svg"
 width="728.000000pt" height="410.000000pt" viewBox="0 0 728.000000 410.000000"
 preserveAspectRatio="xMidYMid meet">

<g transform="translate(0.000000,410.000000) scale(0.100000,-0.100000)"
fill="#000000" stroke="none">
<path d="M0 2179 c0 -1304 3 -1927 10 -1940 7 -13 7 -19 0 -19 -6 0 -10 -41
-10 -110 l0 -110 60 0 c36 0 60 4 60 11 0 5 5 7 10 4 6 -3 10 1 10 9 0 16 -33
39 -43 30 -3 -3 -14 -1 -24 5 -16 9 -16 10 -1 11 15 0 16 4 8 26 -14 37 -13
43 11 37 15 -4 27 1 38 16 9 12 24 23 31 25 8 1 31 18 50 37 19 20 58 44 85
54 65 24 77 34 71 59 -3 12 -1 28 4 36 8 12 13 13 30 2 24 -15 33 -16 25 -2
-8 13 13 50 28 50 7 0 20 9 30 20 20 24 38 25 76 5 43 -22 79 -2 87 48 4 20
10 39 14 42 4 2 15 -20 25 -49 18 -52 18 -54 -3 -97 -18 -36 -32 -49 -80 -72
-58 -27 -112 -87 -112 -123 0 -8 -3 -13 -7 -13 -20 3 -33 -2 -33 -12 0 -8 4
-9 13 0 8 6 17 8 20 5 3 -3 21 -6 40 -6 30 0 34 -3 31 -21 -3 -15 0 -12 7 6
11 28 43 36 77 18 27 -14 65 5 59 29 -3 11 -2 20 2 20 8 0 60 -23 92 -40 12
-6 19 -2 28 16 6 13 17 24 25 24 18 0 79 107 70 122 -4 7 -3 8 4 4 7 -4 12 -4
12 1 0 10 89 67 96 61 7 -8 -49 -68 -63 -68 -21 0 -34 -38 -31 -88 2 -39 6
-47 22 -47 27 0 54 52 56 105 1 44 1 45 15 20 8 -14 14 -21 15 -15 0 5 5 4 11
-2 7 -7 8 -17 3 -25 -5 -7 -7 -23 -6 -35 2 -14 -4 -23 -17 -28 -24 -7 -28 -35
-6 -35 8 0 24 9 35 20 23 23 34 26 27 6 -8 -19 35 -47 54 -36 9 6 21 2 36 -11
17 -17 28 -19 55 -14 48 11 74 25 59 35 -9 5 -6 15 11 35 l24 27 37 -22 c43
-26 51 -10 17 33 -11 14 -20 32 -20 41 0 24 34 19 45 -6 6 -12 18 -23 28 -24
29 -4 29 -8 -5 -55 -17 -24 18 8 79 72 210 218 476 399 745 509 32 13 56 25
54 28 -8 7 -190 -77 -302 -139 -60 -34 -155 -94 -213 -136 -97 -69 -105 -73
-120 -57 -15 15 -14 16 12 10 22 -5 27 -3 27 14 0 24 -43 54 -69 47 -24 -6
-33 15 -24 51 6 25 5 26 -11 12 -16 -13 -20 -12 -38 10 -33 40 -14 168 27 184
9 3 13 2 10 -4 -3 -6 0 -10 7 -10 8 0 9 -3 3 -8 -5 -4 -11 -15 -11 -24 -2 -20
40 -26 51 -8 9 15 27 12 19 -2 -4 -7 1 -5 12 4 16 14 23 15 32 6 22 -22 14
-38 -17 -32 -16 3 -31 2 -34 -3 -3 -5 3 -38 12 -73 20 -72 30 -77 101 -49 41
16 50 26 50 57 0 15 6 22 20 22 12 0 24 -10 30 -22 5 -13 9 -17 9 -10 1 6 8
12 16 12 25 0 -19 63 -64 90 -46 29 -52 56 -16 70 32 12 72 -5 81 -34 9 -28
34 -56 51 -56 7 0 33 18 57 40 24 23 46 37 48 33 3 -4 3 -3 2 4 -2 6 -6 28
-10 48 -5 27 -9 33 -19 25 -10 -8 -15 -4 -20 19 -4 17 -11 34 -16 37 -10 6
-46 -29 -86 -82 -20 -27 -33 -31 -33 -9 0 8 14 24 30 37 17 12 30 28 30 35 0
7 5 13 10 13 15 0 12 66 -5 107 -8 19 -15 57 -15 83 0 32 -6 55 -20 73 -11 14
-20 28 -20 31 0 12 32 5 48 -10 15 -15 16 -15 22 2 11 30 -4 77 -51 161 l-43
78 -1 205 c0 113 -4 211 -9 218 -6 9 -14 7 -37 -9 -35 -25 -59 -19 -59 15 0
17 7 26 26 30 16 4 32 2 38 -4 8 -8 6 -9 -9 -5 -20 6 -20 6 -1 -6 16 -9 21 -9
24 0 3 9 7 9 18 0 11 -9 15 -8 20 5 8 20 24 21 24 2 0 -21 21 -31 30 -16 5 9
20 11 44 7 22 -3 34 -2 31 4 -4 5 -2 9 4 9 6 0 7 7 4 17 -8 19 4 14 58 -29 28
-23 35 -34 31 -53 -3 -20 0 -25 17 -25 15 0 19 4 14 17 -5 12 11 7 61 -20 90
-50 98 -47 11 5 -76 45 -137 91 -321 239 -151 122 -220 168 -344 230 -101 50
-274 112 -346 123 -21 4 -3 -5 42 -18 188 -58 343 -130 482 -224 88 -59 210
-160 180 -149 -15 5 -18 0 -19 -26 l-1 -32 -8 33 c-10 41 -18 51 -30 32 -6 -8
-10 -10 -11 -5 -1 6 -4 -5 -8 -23 -7 -40 -27 -43 -23 -3 2 21 -4 34 -23 49
-28 22 -64 20 -45 -3 6 -7 12 -28 13 -46 1 -19 5 -36 9 -39 12 -9 -4 -58 -20
-62 -38 -9 -51 3 -62 59 -13 62 -38 93 -75 93 -14 0 -46 10 -71 22 -39 18 -50
19 -66 9 -18 -11 -24 -9 -50 16 -16 15 -35 47 -41 71 -9 33 -15 42 -29 39 -23
-6 -42 46 -27 75 10 18 8 19 -18 16 -32 -3 -52 -24 -46 -48 5 -19 -31 -55 -47
-45 -6 4 -8 15 -5 26 6 18 -6 24 -41 20 -18 -2 -37 27 -31 49 3 11 -4 43 -14
71 -11 27 -17 54 -14 58 2 5 -14 12 -37 15 -23 4 -45 12 -49 18 -5 7 -8 7 -13
-1 -4 -6 4 -13 17 -17 22 -5 25 -12 29 -68 3 -44 10 -71 27 -94 12 -18 32 -64
43 -104 18 -62 27 -78 80 -129 53 -52 59 -62 54 -86 -4 -16 -17 -36 -29 -45
-20 -16 -23 -15 -58 15 -21 18 -38 37 -38 44 -1 6 -10 15 -21 18 -20 6 -34 39
-29 66 6 30 -15 105 -32 117 -10 7 -16 19 -13 27 4 8 2 15 -4 15 -6 0 -13 -6
-15 -12 -3 -8 -6 -6 -6 5 -1 9 -4 16 -8 15 -12 -2 -127 54 -131 64 -2 4 -10 8
-17 8 -21 0 -25 27 -10 71 17 47 19 62 6 55 -4 -3 -11 -20 -15 -38 l-6 -33
-20 30 c-18 28 -19 68 0 88 4 4 5 30 2 57 -4 41 0 57 24 97 l29 48 6 -50 c6
-54 34 -115 42 -93 2 7 7 10 11 6 4 -3 0 -17 -8 -30 -9 -14 -19 -58 -22 -99
-6 -73 -6 -75 19 -92 28 -18 97 -31 97 -19 0 4 -16 24 -35 44 -30 30 -33 38
-22 50 23 22 29 66 13 91 -9 12 -18 56 -21 97 -3 41 -8 90 -12 108 -3 17 -3
32 1 32 3 0 21 -15 40 -34 19 -19 37 -32 42 -28 4 4 4 1 0 -5 -4 -7 -2 -21 3
-30 8 -14 10 -8 11 28 0 56 10 69 25 32 l11 -27 23 32 c12 18 27 30 32 27 5
-4 9 -32 9 -63 0 -49 3 -58 23 -67 27 -12 81 12 83 38 1 9 -18 35 -42 57 -35
32 -44 47 -42 68 2 21 -2 28 -19 30 -13 2 -23 9 -23 15 0 15 -58 87 -70 87 -4
0 -13 -13 -18 -29 -6 -16 -20 -32 -31 -36 -12 -3 -21 -10 -21 -14 0 -5 -10 -7
-22 -6 -32 3 -32 3 -18 20 7 9 19 14 26 11 18 -7 64 39 64 64 0 13 -4 19 -12
14 -7 -5 -8 -3 -3 5 4 7 16 11 26 8 15 -4 19 0 19 24 0 16 3 29 8 29 10 0 53
-65 51 -76 -5 -21 23 -65 48 -77 16 -6 37 -22 48 -33 11 -12 40 -32 63 -44 23
-12 47 -31 53 -42 15 -28 84 -22 85 8 1 27 12 44 27 44 22 0 66 -45 69 -70 3
-23 0 -25 -52 -31 -30 -3 -67 -2 -82 2 -16 4 -28 4 -28 -1 0 -5 8 -10 18 -12
9 -2 -14 -15 -53 -27 -105 -35 -304 -140 -269 -141 6 0 22 8 35 18 29 22 121
62 143 62 10 0 13 -6 10 -15 -4 -8 -14 -15 -23 -15 -14 0 -14 2 -1 10 8 5 11
10 5 10 -5 0 -17 -5 -25 -10 -11 -7 -11 -10 -2 -10 7 0 11 -4 7 -9 -3 -6 8 -6
27 -1 71 20 270 50 364 56 72 5 122 2 184 -9 47 -9 102 -19 124 -22 33 -6 124
-45 103 -45 -4 0 -3 -9 3 -20 6 -11 13 -38 15 -61 3 -35 1 -40 -13 -34 -12 4
-10 0 6 -15 28 -26 28 -28 -5 -24 -16 2 -22 1 -15 -2 10 -5 10 -9 1 -20 -10
-12 -8 -18 9 -30 28 -19 27 -27 0 -67 -13 -18 -24 -34 -25 -36 -1 -2 -15 4
-30 13 l-28 17 27 -24 c20 -19 24 -27 15 -37 -9 -10 -7 -11 10 -6 15 5 37 -3
75 -27 84 -54 436 -181 425 -154 -39 97 -36 94 -80 101 -23 4 -52 9 -64 13
-19 4 -23 1 -23 -20 0 -14 -5 -29 -11 -33 -8 -4 -9 3 -4 24 7 35 11 33 -107
56 -42 9 -98 24 -124 34 l-46 19 153 83 c85 46 175 95 201 109 26 14 48 30 48
34 0 4 -21 -4 -47 -19 -238 -133 -363 -198 -369 -191 -2 2 6 14 18 27 12 13
23 30 24 37 1 7 17 35 34 62 23 35 37 48 48 43 11 -4 14 -1 9 11 -4 11 -2 14
7 11 8 -3 16 4 20 18 8 33 7 40 -5 33 -12 -8 17 65 32 80 12 12 1 -24 -14 -42
-5 -7 -6 -21 -2 -30 7 -17 8 -16 15 2 l9 20 0 -20 c1 -17 3 -18 11 -5 9 13 11
13 20 0 12 -17 6 19 -12 79 -8 27 -7 36 6 49 15 15 16 14 17 -13 l1 -30 9 30
c6 20 5 32 -4 38 -7 5 -4 6 9 3 26 -8 44 27 36 70 -5 25 -3 27 10 16 9 -7 33
-40 54 -72 l38 -60 215 219 c170 173 234 231 301 274 94 59 232 139 234 135 1
-2 -1 -48 -4 -102 -3 -69 -9 -100 -18 -102 -7 -1 -8 0 -2 3 13 6 13 40 -1 49
-8 4 -7 9 2 15 7 4 11 11 7 14 -3 4 -25 -3 -49 -15 -32 -17 -39 -24 -28 -32
11 -7 9 -8 -6 -4 -23 7 -131 -55 -128 -72 2 -6 -3 -9 -11 -6 -18 7 -78 -45
-69 -59 3 -7 3 -9 -2 -5 -10 10 -32 -8 -169 -138 -63 -59 -112 -112 -109 -117
3 -6 2 -7 -4 -4 -5 4 -19 -1 -29 -11 -11 -9 -36 -32 -57 -49 -50 -44 -39 -42
31 6 31 21 75 49 97 63 22 13 105 68 185 121 111 75 170 106 254 138 60 22
112 37 116 32 4 -4 11 -25 14 -45 6 -33 4 -38 -12 -38 -71 0 -307 -111 -437
-206 -49 -36 -130 -93 -180 -126 -106 -72 -125 -88 -70 -60 l40 20 0 -59 c0
-64 -14 -83 -16 -21 -1 20 -1 40 0 45 0 4 -3 7 -9 7 -13 0 -13 -31 1 -127 9
-59 18 -84 35 -102 13 -13 24 -26 25 -30 1 -3 2 -17 3 -31 3 -29 12 -54 33
-93 8 -15 12 -35 9 -43 -3 -7 0 -14 7 -14 7 0 18 -9 25 -21 12 -19 15 -20 31
-5 10 9 22 13 27 9 5 -5 1 2 -10 14 -10 12 -15 26 -12 32 7 11 -7 53 -26 72
-7 8 -26 32 -42 54 -16 22 -34 45 -40 50 -6 6 -20 24 -30 40 -17 26 -17 28 -2
16 14 -12 19 -12 25 -2 6 9 23 -7 58 -51 38 -48 52 -77 61 -122 12 -61 35
-106 53 -106 6 0 9 7 5 15 -3 8 0 15 7 15 7 1 -2 13 -19 28 -18 16 -34 41 -38
61 l-6 34 27 -28 c33 -33 138 -85 173 -85 19 0 21 -3 11 -9 -8 -5 -20 -7 -28
-4 -7 3 -13 3 -13 -1 0 -3 15 -10 33 -15 28 -9 23 -10 -33 -8 -52 2 -65 -1
-65 -13 0 -16 31 -18 74 -4 20 6 23 4 18 -10 -5 -11 -3 -15 5 -10 8 5 9 2 5
-9 -3 -9 -2 -16 2 -14 5 1 23 -17 40 -40 33 -46 54 -53 82 -27 17 16 19 15 29
-10 5 -15 10 -33 10 -41 0 -8 5 -17 12 -21 8 -5 9 -2 5 10 -4 9 -16 47 -27 84
-20 66 -22 68 -53 66 -26 -1 -27 0 -4 3 32 5 32 8 11 79 -14 50 -14 59 0 101
23 66 63 131 86 138 26 8 62 -22 121 -98 24 -32 49 -63 55 -70 19 -22 40 -69
64 -142 12 -38 27 -74 33 -80 7 -7 8 -4 2 10 -4 11 -18 49 -30 85 -85 236
-104 289 -118 322 -8 20 -13 39 -10 41 6 7 153 -34 171 -48 1 -1 12 -35 23
-75 18 -64 29 -113 59 -250 4 -19 8 -26 9 -15 1 11 6 37 12 58 l10 38 40 -78
c22 -43 37 -67 34 -53 -3 14 -10 59 -16 100 -10 72 -30 110 -37 72 -2 -9 -7
-21 -12 -25 -4 -5 -4 11 1 35 4 24 8 46 9 50 0 4 24 4 53 1 50 -5 51 -5 32 11
-20 17 -20 17 3 6 12 -6 22 -15 22 -19 0 -5 11 -11 23 -15 13 -3 47 -24 76
-47 52 -41 53 -43 47 -85 -4 -40 -3 -44 19 -50 13 -3 29 -3 35 1 5 3 22 -3 36
-14 31 -24 48 -27 41 -7 -4 10 -1 13 8 10 23 -9 -4 -41 -48 -59 -80 -32 -160
-14 -215 49 -32 37 -39 54 -45 116 -3 28 -4 25 -5 -14 -3 -86 54 -154 146
-174 61 -14 137 5 176 44 15 14 18 14 43 -4 52 -37 112 -108 104 -121 -7 -10
-26 -7 -88 12 -113 36 -403 88 -475 86 -18 -1 10 -7 62 -15 164 -23 334 -56
360 -70 34 -17 121 -109 95 -100 -49 18 -161 46 -180 46 -11 -1 21 -12 71 -25
50 -13 105 -30 122 -39 17 -9 38 -16 47 -16 10 0 13 -4 8 -12 -4 -7 -8 -19
-10 -27 -1 -8 -8 -18 -15 -22 -7 -5 -9 -9 -5 -9 4 0 -2 -10 -13 -23 -12 -12
-31 -40 -42 -61 -35 -69 -50 -79 -104 -71 -48 6 -147 52 -139 64 2 4 -20 17
-48 30 -94 41 -236 109 -247 118 -2 2 2 9 10 14 12 8 10 10 -7 6 -33 -7 -28 2
9 17 l32 14 -44 10 c-40 9 -33 10 70 12 l115 3 -123 8 c-68 4 -137 12 -154 18
-17 6 -42 11 -56 11 -14 0 -22 3 -18 7 4 4 -8 15 -26 26 -18 10 -24 15 -13 11
79 -27 139 -44 142 -40 2 2 -20 12 -49 21 -70 23 -199 73 -220 85 -13 8 -16 6
-12 -5 4 -8 13 -15 21 -15 8 0 11 -5 8 -10 -6 -10 23 -58 53 -89 9 -9 32 -14
62 -13 l47 1 -18 -37 c-23 -45 -25 -127 -4 -243 17 -96 55 -231 80 -280 35
-69 290 -409 307 -409 5 0 -3 20 -18 45 -18 32 -21 43 -11 39 11 -4 14 0 11
13 -2 10 0 24 5 32 8 12 14 12 38 -4 30 -20 128 -119 170 -173 22 -29 30 -33
56 -28 17 4 35 10 40 15 11 11 -1 71 -13 71 -5 0 -20 10 -34 23 -18 17 -22 27
-15 40 8 13 6 17 -8 17 -12 0 -14 3 -6 8 7 4 9 13 4 20 -14 24 -75 62 -98 62
-13 0 -23 4 -23 9 0 5 -16 15 -35 22 -30 11 -34 17 -31 41 2 16 10 34 19 41 8
7 18 28 22 47 4 23 3 30 -3 22 -6 -10 -9 -5 -8 16 1 38 26 31 26 -8 0 -16 5
-32 10 -35 5 -3 10 -1 10 5 0 7 7 10 15 6 8 -3 19 2 24 12 10 16 10 16 11 -1
0 -10 12 -32 28 -47 48 -52 53 -60 47 -80 -5 -14 -2 -18 8 -14 7 2 20 -2 27
-11 7 -8 18 -15 25 -15 13 0 54 -32 108 -83 16 -15 42 -31 58 -34 16 -3 29 -9
29 -13 0 -17 60 -30 85 -18 14 6 28 8 32 4 11 -10 -26 -78 -40 -73 -7 3 -13
-3 -13 -14 0 -13 3 -15 13 -7 16 13 16 13 -1 -42 -12 -39 -12 -49 0 -64 7 -11
12 -33 10 -50 -2 -17 -1 -37 1 -43 8 -19 51 -16 100 8 43 21 44 22 28 45 -16
24 -15 25 12 19 23 -4 24 -4 8 4 -11 5 -38 11 -60 12 -32 2 -27 3 25 9 68 8
176 10 128 3 -24 -4 -27 -7 -18 -24 9 -16 15 -17 31 -9 24 13 39 5 39 -21 0
-10 4 -19 8 -19 11 0 -1 -84 -18 -135 -18 -51 -14 -46 -52 -55 -31 -8 -32 -8
-5 -9 28 -1 39 -21 11 -21 -8 0 -12 -5 -9 -10 4 -6 -7 -10 -24 -10 -17 0 -31
4 -31 9 0 5 -10 12 -22 14 -18 3 -17 5 7 6 50 2 7 21 -50 21 -55 1 -152 21
-181 39 -11 6 -14 11 -6 11 18 0 -11 30 -29 30 -7 0 -9 3 -6 6 8 8 -90 104
-135 132 -37 23 -159 86 -170 86 -3 1 -10 4 -14 8 -15 16 -26 7 -13 -9 8 -10
-9 -1 -38 19 l-52 37 6 -36 c4 -24 3 -34 -5 -30 -5 4 -13 25 -17 46 -6 35 -21
52 -139 155 -155 135 -258 241 -285 293 -30 60 -76 203 -125 388 -47 181 -56
199 -30 70 8 -44 17 -144 20 -222 5 -123 3 -152 -15 -218 -24 -85 -28 -137 -5
-60 34 113 34 114 30 67 -2 -24 0 -58 5 -75 6 -21 6 -49 -2 -82 -19 -83 -45
-155 -54 -147 -5 4 -5 2 -2 -4 7 -12 -31 -110 -56 -145 -13 -18 -12 -14 3 18
11 23 20 53 20 65 -1 14 -9 1 -20 -31 -11 -30 -31 -72 -45 -93 -29 -44 -32
-56 -7 -37 15 13 16 12 3 -4 -8 -9 -16 -15 -19 -13 -3 3 -41 -30 -86 -74 -44
-43 -81 -78 -82 -77 -2 1 13 34 32 72 26 55 37 95 50 184 8 62 13 125 11 140
-3 17 -5 12 -6 -16 -1 -33 -8 -48 -33 -73 -46 -43 -119 -83 -210 -115 l-76
-27 -26 -81 c-14 -45 -27 -91 -30 -102 -2 -11 -4 0 -5 25 0 25 8 69 19 97 11
29 16 53 12 53 -20 0 -261 -103 -331 -141 -175 -96 -327 -213 -462 -357 l-81
-87 453 -3 c248 -1 454 -1 456 1 2 2 -6 33 -17 68 -11 35 -20 78 -20 94 l0 30
14 -27 c8 -15 17 -42 21 -60 4 -18 11 -50 16 -70 l10 -38 744 0 744 0 -29 50
c-16 27 -62 98 -102 157 -40 59 -75 112 -77 116 -2 5 50 -37 115 -93 66 -56
156 -131 200 -166 l82 -64 139 0 139 0 99 66 c55 36 110 75 122 86 37 35 34
17 -9 -57 -22 -39 -43 -76 -45 -82 -4 -10 51 -13 254 -13 l258 0 19 65 c10 36
22 68 27 71 5 2 2 -17 -6 -43 -9 -26 -18 -58 -21 -71 l-6 -22 537 0 537 0 -31
38 c-29 38 -110 111 -201 183 -84 67 -196 137 -341 214 -152 82 -194 109 -246
162 l-33 33 0 155 c0 128 2 153 14 149 8 -3 17 -1 21 5 6 10 1 12 -22 10 -5 0
-11 10 -15 23 -3 13 -6 -128 -7 -312 -1 -326 0 -337 23 -410 13 -41 27 -91 31
-110 l7 -35 -43 49 c-78 87 -131 160 -152 206 -17 38 -19 57 -14 135 4 49 15
135 26 190 10 55 18 101 18 102 -1 1 -34 -37 -72 -85 -39 -47 -84 -102 -101
-121 -17 -20 -47 -58 -68 -84 -20 -27 -36 -44 -36 -39 0 12 182 327 203 353
10 11 15 24 13 28 -3 5 4 17 17 27 l22 19 -19 -22 c-11 -13 -15 -23 -9 -23 15
0 43 35 48 60 2 12 10 29 17 38 17 22 -58 -42 -171 -147 -50 -46 -91 -81 -91
-78 0 3 18 35 40 70 27 42 38 71 34 83 -4 14 -3 16 4 5 8 -11 12 -9 23 10 11
22 11 23 -4 10 -23 -18 -22 -12 13 57 17 34 30 65 30 69 -1 4 -31 -53 -69
-127 -50 -99 -73 -134 -84 -132 -9 2 -27 -3 -39 -10 -42 -23 -118 -35 -118
-19 0 6 -18 14 -39 17 -29 5 -41 12 -45 28 -9 33 -7 96 3 96 5 0 13 17 19 38
12 43 54 145 63 152 4 3 14 34 23 70 9 36 23 74 30 85 7 11 16 41 19 66 3 26
20 73 37 105 16 32 30 64 30 70 0 6 18 30 39 53 22 23 32 40 23 37 -99 -29
-142 -30 -126 -5 16 26 -80 -39 -130 -87 l-54 -52 -28 55 c-16 30 -46 75 -67
99 l-38 43 58 17 c32 10 76 18 98 17 31 0 36 2 20 8 -13 6 -4 8 30 5 38 -4 44
-3 25 4 -19 7 -11 8 30 5 51 -4 53 -4 20 6 -33 10 -71 8 -130 -6 -17 -4 -14
-1 9 9 18 9 44 16 57 16 13 0 36 12 52 27 15 16 19 21 7 12 -33 -26 -42 -29
-42 -14 0 8 4 12 9 9 4 -3 8 -1 8 5 0 5 -8 11 -17 13 -29 6 213 47 336 58 63
5 116 12 119 15 18 18 -345 -29 -538 -70 -105 -22 -116 -23 -127 -8 -12 16 -2
43 16 43 4 0 45 20 91 45 l84 45 25 -24 c79 -75 243 -56 295 35 l20 34 -36
-37 c-78 -82 -190 -90 -271 -20 -13 12 -15 17 -5 24 7 4 18 8 23 8 6 0 4 -4
-3 -9 -10 -6 -10 -10 2 -20 16 -14 40 -6 31 10 -4 5 -1 9 4 9 6 0 11 -6 11
-12 0 -9 4 -8 10 2 13 20 12 39 -1 20 -9 -13 -10 -13 -6 0 4 14 11 16 66 19
19 1 21 4 12 15 -10 12 -10 20 0 38 7 13 12 27 11 32 -2 5 4 6 13 3 8 -4 15
-2 15 3 0 5 7 7 15 4 10 -4 15 0 15 14 0 11 7 23 16 26 24 9 26 8 13 -16 -11
-22 -11 -22 7 -7 18 15 60 29 144 49 l35 8 -35 1 c-19 1 -42 6 -50 11 -11 8
-7 9 15 4 23 -4 26 -3 15 5 -13 10 -13 11 0 12 8 1 19 1 23 0 5 -1 6 2 3 7 -5
9 35 32 54 32 5 0 7 -29 3 -67 -3 -38 -3 -66 -1 -63 6 5 44 414 56 604 18 278
-41 500 -192 729 -34 50 -10 28 57 -55 37 -46 76 -94 87 -108 11 -14 6 0 -11
30 -17 30 -36 61 -41 68 -6 6 -7 12 -3 12 12 0 55 -53 55 -67 0 -7 7 -13 15
-13 8 0 14 -3 13 -7 -2 -5 10 -20 25 -36 16 -15 25 -32 21 -39 -4 -7 -3 -8 4
-4 6 4 9 14 6 24 -10 40 58 -114 80 -179 13 -38 27 -73 31 -77 13 -12 -6 120
-27 191 -10 38 -17 71 -15 74 3 2 8 -10 12 -27 4 -17 12 -29 18 -27 14 4 10
86 -5 105 -7 8 -7 12 1 12 6 0 11 7 11 15 0 9 6 18 14 21 8 3 20 18 26 34 7
16 17 27 24 24 7 -3 18 7 24 21 17 38 32 21 32 -36 0 -31 -4 -48 -10 -44 -5 3
-10 -1 -10 -9 0 -9 -5 -16 -10 -16 -10 0 -4 -139 6 -149 2 -2 -2 -11 -9 -19
-9 -13 -9 -14 1 -8 8 5 12 -1 13 -21 l1 -28 8 25 c4 14 9 52 11 85 1 41 4 49
6 26 12 -93 -39 -422 -83 -539 -9 -24 -14 -45 -11 -48 2 -2 23 40 46 95 45
109 73 216 96 363 12 80 13 84 10 28 -3 -44 -1 -58 5 -45 7 18 9 16 9 -9 1
-28 2 -29 15 -10 14 17 14 16 10 -21 -3 -21 -2 -36 1 -33 3 3 7 20 10 38 4 37
15 53 15 23 0 -33 -40 -156 -58 -176 -8 -9 -13 -20 -9 -23 7 -7 58 62 95 128
15 27 31 48 37 48 5 0 4 -5 -3 -12 -17 -17 -15 -28 5 -21 13 5 15 2 11 -15 -4
-12 -2 -20 3 -16 12 7 11 -3 -1 -27 -20 -36 -2 -19 29 28 43 64 39 44 -5 -28
-19 -33 -40 -57 -45 -54 -5 4 -7 0 -4 -7 3 -7 -27 -49 -68 -93 -81 -90 -117
-137 -117 -155 0 -6 6 -18 14 -26 12 -12 30 4 130 115 132 147 180 219 196
298 7 30 12 147 13 261 1 200 2 205 14 142 24 -113 28 -353 9 -451 -28 -141
-58 -191 -209 -351 -170 -183 -393 -458 -467 -581 l-20 -32 0 29 c0 42 -6 29
-14 -28 l-6 -49 51 79 c95 144 168 234 192 234 41 0 86 -18 112 -46 32 -34 33
-45 1 -15 l-23 22 -37 -42 c-20 -23 -36 -46 -36 -52 0 -6 6 -4 13 5 6 8 21 18
32 22 13 5 7 -5 -18 -28 -20 -20 -33 -36 -29 -36 5 0 17 9 28 21 10 12 31 27
45 35 33 16 43 8 64 -57 13 -41 14 -41 10 -9 -4 27 -3 30 4 14 5 -11 11 -38
12 -60 2 -21 6 -41 10 -44 4 -3 -1 -23 -10 -45 -24 -54 -40 -105 -35 -105 3 0
12 17 21 38 14 33 17 35 23 17 5 -11 6 -31 3 -44 -5 -18 -3 -22 8 -17 8 4 6 1
-4 -7 -16 -13 -16 -15 -2 -21 10 -3 13 -2 10 5 -4 6 3 8 22 4 18 -4 23 -3 15
3 -9 6 -3 9 18 9 16 0 30 -3 30 -7 0 -13 -74 -32 -108 -27 l-37 6 34 -11 c27
-9 42 -8 80 6 25 10 86 29 135 43 49 14 109 34 133 44 68 29 40 3 -40 -38 -40
-19 -90 -48 -112 -63 -22 -15 -69 -44 -105 -64 -36 -20 -62 -36 -59 -36 14 0
82 32 130 61 39 25 57 30 82 25 18 -3 26 -2 20 2 -9 5 5 14 40 26 28 11 76 29
105 42 54 25 78 31 52 14 -13 -9 -13 -10 0 -9 20 0 69 28 51 29 -25 0 69 61
173 111 94 46 169 93 137 87 -7 -2 -16 3 -19 11 -2 8 0 11 6 7 6 -3 14 -1 18
5 5 8 -12 10 -61 7 -65 -4 -66 -4 -43 13 67 50 67 50 23 44 -22 -4 -50 -8 -62
-11 -17 -3 -20 0 -16 16 3 11 9 23 14 26 5 3 9 18 9 34 0 57 5 60 67 39 91
-31 85 -21 -8 14 -85 33 -294 145 -285 154 2 2 17 -2 33 -10 73 -36 326 -107
339 -94 3 2 -10 7 -27 11 -18 3 -30 9 -27 12 3 3 25 0 49 -6 27 -8 38 -14 30
-19 -18 -12 19 -20 119 -28 72 -5 83 -4 74 8 -40 51 -139 176 -146 184 -6 6
-7 4 -3 -6 8 -21 -14 -36 -25 -18 -5 7 -6 17 -4 21 3 4 1 8 -4 8 -5 0 -12 14
-16 30 -3 17 -20 52 -37 78 -28 41 -29 44 -7 24 14 -12 35 -45 48 -72 13 -28
27 -50 32 -50 5 0 2 10 -6 23 -34 52 -114 369 -140 558 -34 240 -85 409 -151
495 -14 19 -20 31 -13 28 19 -7 131 -161 161 -221 77 -151 122 -305 137 -463
14 -153 56 -261 157 -407 48 -69 263 -296 272 -287 3 2 -33 43 -80 90 l-84 85
45 -3 c25 -1 73 -1 107 0 56 2 61 4 56 22 -8 29 7 150 18 150 5 0 9 -21 10
-47 1 -27 4 -59 8 -73 7 -23 8 -23 15 12 7 41 49 98 62 86 6 -7 -9 -74 -31
-133 -5 -15 -4 -16 3 -6 5 7 15 10 22 6 6 -4 27 -4 46 -1 l34 7 0 68 0 69 -31
6 c-17 3 -46 6 -65 6 -18 0 -39 7 -47 15 -12 11 -17 12 -20 2 -5 -13 -40 28
-43 51 -2 7 -8 20 -15 28 -11 14 -18 11 -50 -24 l-37 -41 -58 16 c-33 8 -98
31 -146 51 l-88 37 -15 53 c-26 89 -34 141 -21 151 38 31 238 101 421 147 116
29 203 53 195 53 -63 2 -270 -23 -334 -40 -83 -21 -249 -75 -278 -90 -21 -12
-25 -6 -33 62 l-7 56 139 41 c146 45 213 59 411 87 l122 18 0 144 0 144 -32
-6 c-224 -37 -292 -50 -408 -74 -74 -16 -136 -28 -138 -26 -6 5 156 84 248
120 52 21 147 54 210 75 l115 38 3 251 2 251 -85 0 c-48 0 -84 -4 -81 -9 3 -4
-35 -11 -85 -15 -50 -4 -105 -9 -122 -12 l-32 -4 29 11 c51 20 8 29 -148 29
-127 0 -147 -2 -137 -14 10 -12 5 -13 -31 -9 -24 3 -44 10 -46 14 -2 5 -19 9
-38 9 -32 0 -34 -2 -34 -36 l0 -37 63 6 c57 5 60 4 37 -8 -14 -8 -33 -14 -43
-15 -10 0 -21 -10 -26 -23 -6 -15 -23 -27 -51 -36 -23 -7 -43 -11 -45 -9 -1 2
-11 23 -22 48 -22 50 -69 110 -86 110 -6 0 0 -11 12 -24 14 -15 20 -30 15 -38
-4 -7 -4 -10 1 -6 10 9 35 -10 35 -26 0 -6 -5 -4 -10 4 -8 12 -10 12 -10 1 0
-11 -5 -10 -20 4 -19 17 -20 17 -27 -1 -18 -48 -31 -46 -62 13 -24 43 -28 59
-19 65 7 4 -680 8 -1526 8 -847 0 -1537 -2 -1535 -4 2 -2 74 -51 160 -108
l157 -104 -28 -34 -28 -34 -63 34 c-35 18 -80 43 -99 54 -33 21 -150 73 -290
132 -36 14 -79 33 -97 40 -34 15 -101 30 -93 21 3 -3 95 -72 205 -154 110 -83
226 -171 259 -196 32 -25 63 -48 68 -49 5 -2 -12 -39 -37 -83 -25 -44 -55
-106 -68 -138 -20 -54 -28 -62 -102 -111 -44 -29 -109 -71 -145 -92 -90 -53
-171 -115 -165 -124 3 -5 0 -12 -6 -16 -8 -4 -9 -3 -5 4 19 30 -16 6 -73 -52
-41 -42 -61 -68 -56 -77 5 -7 4 -10 -3 -6 -6 4 -30 -20 -55 -56 -43 -60 -78
-104 -155 -196 -20 -24 -43 -53 -50 -63 -7 -10 -17 -18 -22 -18 -5 0 8 28 29
63 96 159 102 170 96 191 -4 14 -3 17 3 8 7 -10 16 -1 37 35 16 26 46 75 69
108 22 33 41 68 41 78 1 10 15 30 31 45 26 25 27 25 8 2 -37 -45 -38 -56 -1
-21 20 19 34 37 32 41 -3 4 5 16 18 26 l22 19 -19 -22 c-11 -13 -17 -23 -14
-23 14 0 256 169 250 176 -4 4 -2 5 3 1 6 -3 17 -2 23 2 10 6 9 14 -3 37 -17
33 -19 54 -5 54 12 0 41 -55 33 -64 -16 -16 15 -2 78 34 38 23 69 45 69 50 0
21 -241 268 -262 270 -12 0 2 -150 17 -180 22 -43 18 -50 -7 -10 -18 28 -23
53 -25 119 -2 71 -6 88 -23 105 l-22 21 6 -34 c3 -22 1 -30 -5 -24 -6 6 -11
23 -13 39 -4 41 -85 105 -281 222 -52 32 -78 51 -61 48 16 -4 95 -47 176 -97
82 -49 150 -89 153 -89 2 0 7 11 9 25 6 29 -3 40 -95 118 l-68 57 -787 0
c-433 0 -782 -4 -776 -8 5 -4 37 -38 69 -77 32 -38 82 -97 111 -130 28 -33 87
-103 130 -155 251 -306 260 -314 568 -546 54 -40 145 -104 202 -141 57 -38
104 -73 104 -80 0 -6 -5 -24 -10 -38 -8 -21 -14 -25 -33 -20 -55 17 -263 118
-355 174 -60 36 -107 58 -116 55 -21 -8 -10 -25 12 -18 13 5 14 4 3 -4 -11 -8
-11 -10 0 -15 8 -3 9 -6 3 -6 -6 -1 -21 8 -33 18 -12 11 -31 25 -43 33 l-20
14 20 0 c11 0 19 -4 16 -7 -7 -13 15 -21 31 -11 13 6 7 14 -27 39 -51 37 -76
60 -187 167 -49 48 -81 73 -78 61 16 -60 19 -87 8 -81 -6 4 -11 17 -11 29 0
60 -23 96 -135 218 -64 68 -121 123 -126 121 -6 -1 -8 2 -5 7 4 5 -15 33 -42
63 -26 29 -72 82 -102 118 -57 69 -93 108 -73 80 68 -97 137 -185 144 -183 5
2 6 -3 3 -11 -3 -7 3 -19 12 -27 15 -12 17 -12 9 0 -5 10 -4 12 4 7 6 -4 9
-12 6 -17 -9 -13 45 -80 58 -72 6 3 7 1 3 -5 -4 -7 25 -54 67 -109 41 -54 80
-109 87 -123 16 -32 163 -200 227 -261 91 -87 272 -210 443 -301 125 -67 172
-99 165 -115 -3 -8 -8 -26 -11 -40 -5 -18 -12 -23 -25 -20 -11 3 -19 1 -19 -4
0 -5 5 -9 10 -9 6 0 10 -5 10 -11 0 -5 -4 -8 -9 -5 -5 4 -7 -2 -4 -12 2 -11
-2 -35 -11 -56 l-15 -36 -53 32 c-29 17 -71 42 -93 55 -22 13 -51 31 -65 39
-18 12 -20 12 -7 1 9 -8 17 -16 17 -19 0 -2 -39 2 -87 10 -55 8 -134 11 -210
9 -101 -4 -123 -2 -127 10 -9 24 -7 31 12 36 16 4 16 5 0 6 -26 2 -22 16 8 29
14 7 22 17 19 22 -3 6 1 10 9 10 12 0 16 10 16 35 0 19 -4 35 -10 35 -5 0 -10
11 -10 25 0 15 -8 29 -22 36 -13 7 -26 17 -30 24 -4 7 -19 10 -33 7 -18 -3
-25 0 -25 12 0 13 -5 14 -27 6 l-28 -10 27 22 c21 19 25 27 16 41 -7 14 -19
18 -46 16 -38 -3 -66 -26 -78 -62 -6 -20 -7 -20 -19 3 -15 29 -9 57 17 71 18
10 18 11 -3 45 -11 19 -18 41 -15 49 3 10 -1 15 -11 15 -14 0 -14 2 3 15 18
14 18 14 -7 15 -28 0 -75 29 -49 30 13 0 13 1 0 10 -12 8 -10 10 10 10 18 0
26 6 28 20 6 62 3 63 67 -32 56 -83 156 -207 208 -257 22 -21 33 -40 30 -50
-3 -11 -2 -12 4 -4 6 8 20 2 48 -23 46 -40 125 -97 125 -91 0 2 -26 25 -57 50
-118 92 -263 252 -344 377 -34 51 -62 97 -235 378 -80 129 -194 295 -200 290
-2 -3 36 -65 85 -139 63 -94 86 -138 79 -146 -5 -7 -7 -17 -3 -24 6 -8 2 -8
-14 1 -12 6 -25 18 -28 26 -3 8 -10 14 -15 14 -11 0 -47 40 -48 53 0 12 -27
37 -38 37 -6 0 -25 18 -44 41 -29 36 -99 79 -128 79 -6 0 -16 11 -22 25 -6 14
-15 25 -20 25 -4 0 -8 11 -8 25 0 28 -12 32 -29 11 -8 -10 -9 -16 -2 -21 16
-9 -16 -65 -37 -65 -9 0 -26 14 -37 30 -11 17 -25 28 -32 26 -20 -8 -20 27 0
67 20 38 37 56 37 38 0 -11 49 -9 69 3 6 4 11 15 11 25 0 9 5 22 12 29 7 7 8
12 2 12 -16 0 -34 -22 -34 -42 0 -10 -4 -18 -9 -18 -12 0 6 57 20 66 33 20
-20 24 -331 24 l-340 0 0 -1921z m3754 1889 c-20 -23 -5 -18 31 11 l20 16 -20
-25 c-11 -14 -42 -49 -68 -79 -192 -216 -344 -457 -387 -613 -53 -196 -39
-547 37 -902 18 -88 35 -161 37 -163 2 -2 7 26 11 63 14 133 54 297 90 369 34
68 136 212 221 312 23 26 55 64 70 83 39 46 126 128 194 180 73 57 79 63 55
54 l-20 -7 20 23 c11 12 34 29 50 36 83 35 131 94 155 190 9 36 70 121 70 98
0 -5 9 2 19 15 10 13 24 22 32 20 13 -4 13 -10 2 -50 -12 -43 -21 -55 -80
-120 -29 -32 -36 -64 -17 -83 13 -13 10 -17 -26 -27 -61 -18 -41 -22 26 -4 85
22 264 18 264 -6 0 -5 -6 -9 -12 -9 -21 0 -196 -92 -278 -145 -146 -95 -322
-235 -295 -235 5 0 20 10 34 23 l26 22 -24 -28 c-15 -17 -31 -25 -41 -22 -10
3 -23 -2 -31 -11 -11 -14 -11 -18 -1 -22 8 -2 10 -8 3 -15 -5 -7 -10 -16 -11
-22 -1 -5 -6 -9 -11 -8 -4 2 -13 -6 -19 -16 -10 -20 -70 -67 -70 -56 0 3 23
31 51 61 29 30 47 54 42 54 -17 0 -162 -168 -211 -243 -93 -144 -177 -357
-235 -597 -19 -80 -39 -165 -43 -190 -4 -26 -9 -37 -11 -25 -15 79 -108 400
-173 600 -43 132 -84 267 -91 300 -17 83 -14 304 4 390 58 264 208 508 427
690 47 39 84 63 91 59 8 -5 9 -3 4 6 -6 9 -4 12 7 8 8 -4 21 -2 29 4 11 8 10
9 -3 4 -28 -9 -21 1 19 29 46 31 63 32 37 3z m-2265 -98 c267 -219 536 -413
569 -409 33 3 44 -1 39 -15 -4 -9 6 -22 26 -33 56 -34 200 -90 273 -109 l72
-18 -22 -35 c-12 -20 -28 -51 -35 -69 -8 -18 -17 -35 -21 -37 -11 -7 -52 12
-248 108 -248 123 -301 162 -461 341 -143 161 -328 381 -310 370 8 -4 61 -47
118 -94z m2876 -20 c3 -5 1 -10 -4 -10 -6 0 -11 5 -11 10 0 6 2 10 4 10 3 0 8
-4 11 -10z m-3754 -223 c-13 -13 -15 14 -3 64 l7 34 3 -44 c2 -24 -2 -49 -7
-54z m1446 57 c-3 -3 -12 -4 -19 -1 -8 3 -5 6 6 6 11 1 17 -2 13 -5z m23 -39
c0 -7 6 -18 13 -22 15 -9 37 -57 37 -79 0 -9 -7 -22 -15 -30 -12 -12 -15 -13
-15 -2 0 7 -13 40 -30 73 -35 72 -36 75 -10 75 11 0 20 -7 20 -15z m4869 -27
c0 -28 -2 -30 -9 -13 -12 28 -12 45 0 45 6 0 10 -15 9 -32z m-6119 12 c0 -5
-4 -10 -10 -10 -5 0 -10 5 -10 10 0 6 5 10 10 10 6 0 10 -4 10 -10z m1417 -82
c-2 -13 -4 -5 -4 17 -1 22 1 32 4 23 2 -10 2 -28 0 -40z m1440 -63 c6 -27 13
-39 23 -37 8 2 12 1 8 -3 -4 -4 2 -17 13 -28 11 -12 17 -28 14 -38 -3 -10 0
-21 6 -25 8 -4 9 -3 5 4 -4 7 -4 12 1 12 4 0 17 -20 28 -45 11 -25 22 -45 25
-45 3 0 14 -13 23 -30 15 -25 24 -30 57 -30 21 0 40 5 42 11 2 6 15 13 28 14
40 4 41 5 35 14 -8 13 8 21 23 12 8 -5 -6 -20 -42 -45 -30 -20 -79 -62 -109
-92 -31 -29 -67 -58 -81 -64 -24 -9 -25 -8 -15 18 13 35 4 69 -30 112 -15 19
-41 63 -58 96 -27 56 -28 65 -16 87 9 18 10 38 5 63 l-8 38 -23 -32 -23 -33
-20 26 c-21 27 -21 56 0 63 7 2 12 -6 13 -20 0 -22 1 -22 9 -3 l9 20 1 -20 c1
-19 1 -19 11 -2 11 19 16 37 19 67 2 20 15 -12 27 -65z m-2436 38 c13 -16 12
-17 -3 -4 -10 7 -18 15 -18 17 0 8 8 3 21 -13z m-107 -107 c57 -89 69 -117 57
-129 -6 -6 -11 -20 -11 -31 0 -16 -2 -18 -9 -7 -12 18 -23 -2 -14 -26 6 -15 4
-16 -9 -5 -8 7 -23 10 -32 6 -19 -7 -22 11 -3 23 6 4 21 19 32 32 15 17 16 22
5 21 -8 -1 -20 -2 -26 -1 -15 1 -35 48 -28 66 4 9 -1 18 -12 22 -15 6 -15 7 4
14 24 9 29 38 10 57 -7 7 -9 12 -5 12 3 0 22 -24 41 -54z m-126 27 c-10 -2
-28 -2 -40 0 -13 2 -5 4 17 4 22 1 32 -1 23 -4z m1933 -10 c13 -16 12 -17 -3
-4 -17 13 -22 21 -14 21 2 0 10 -8 17 -17z m1938 -140 c1 -18 -3 -33 -8 -33
-11 0 -19 55 -13 89 l6 26 7 -25 c4 -14 7 -40 8 -57z m-52 10 c-3 -10 -5 -2
-5 17 0 19 2 27 5 18 2 -10 2 -26 0 -35z m863 -20 c-1 -55 -1 -57 -15 -33 -15
26 -20 72 -8 83 16 17 23 3 23 -50z m-3665 7 c3 -6 -1 -7 -9 -4 -18 7 -21 14
-7 14 6 0 13 -4 16 -10z m1110 -50 c-8 -27 -14 -36 -14 -23 -1 24 17 78 24 71
2 -2 -2 -24 -10 -48z m-1125 25 c0 -8 -4 -15 -9 -15 -5 0 -14 7 -21 15 -10 13
-9 15 9 15 12 0 21 -6 21 -15z m2827 -7 c-3 -8 -6 -5 -6 6 -1 11 2 17 5 13 3
-3 4 -12 1 -19z m-1938 9 c-2 -1 -13 -9 -24 -17 -19 -14 -19 -14 -6 3 7 9 18
17 24 17 6 0 8 -1 6 -3z m-89 -61 c0 -2 -16 -13 -35 -25 -19 -11 -35 -18 -35
-16 0 5 61 45 68 45 1 0 2 -2 2 -4z m2180 -16 c-6 -11 -13 -20 -16 -20 -2 0 0
9 6 20 6 11 13 20 16 20 2 0 0 -9 -6 -20z m371 -47 c-12 -20 -14 -14 -5 12 4
9 9 14 11 11 3 -2 0 -13 -6 -23z m-4181 1 c0 -8 -4 -12 -10 -9 -5 3 -10 10
-10 16 0 5 5 9 10 9 6 0 10 -7 10 -16z m4797 -61 c-3 -10 -5 -2 -5 17 0 19 2
27 5 18 2 -10 2 -26 0 -35z m-1163 -17 c-3 -15 -8 -25 -11 -23 -2 3 -1 17 3
31 3 15 8 25 11 23 2 -3 1 -17 -3 -31z m674 9 c-3 -3 -9 2 -12 12 -6 14 -5 15
5 6 7 -7 10 -15 7 -18z m-2884 -47 c-26 -45 -116 -178 -120 -178 -6 0 -5 3 63
108 29 45 55 82 58 82 4 0 3 -6 -1 -12z m3113 -10 c-3 -8 -6 -5 -6 6 -1 11 2
17 5 13 3 -3 4 -12 1 -19z m250 -10 c-3 -8 -6 -5 -6 6 -1 11 2 17 5 13 3 -3 4
-12 1 -19z m-3227 -3 c-7 -8 -18 -15 -24 -15 -6 0 -2 7 8 15 25 19 32 19 16 0z
m3328 -119 c-2 -57 -6 -99 -10 -92 -5 7 -8 5 -8 -6 0 -9 5 -20 10 -23 6 -4 8
-11 4 -16 -3 -5 -10 -7 -15 -4 -13 9 -11 -1 7 -38 l15 -32 -20 25 c-24 30 -24
25 -6 125 8 44 14 99 15 123 0 23 2 42 5 42 3 0 4 -47 3 -104z m-3363 84 c-3
-5 -12 -10 -18 -10 -7 0 -6 4 3 10 19 12 23 12 15 0z m605 -57 c-11 -17 -11
-17 -6 0 3 10 7 31 7 45 l2 27 4 -27 c2 -15 -1 -35 -7 -45z m-630 33 c0 -2 -8
-10 -17 -17 -16 -13 -17 -12 -4 4 13 16 21 21 21 13z m2477 -116 c-20 -100
-16 -128 32 -220 25 -48 34 -90 20 -90 -7 0 -9 -3 -6 -6 9 -10 -12 -46 -23
-39 -6 3 -7 -1 -4 -9 3 -9 -2 -17 -15 -21 -34 -10 -24 -28 13 -23 26 3 32 0
28 -10 -4 -11 0 -13 15 -8 17 5 21 1 27 -25 3 -17 6 -43 6 -58 0 -14 4 -21 8
-16 4 6 14 11 22 13 8 2 2 -9 -15 -24 -289 -266 -475 -421 -570 -478 l-30 -18
27 21 c18 15 25 29 24 46 -2 13 1 22 5 19 5 -3 6 1 3 9 -12 32 -87 42 -120 16
-6 -5 -26 -10 -45 -11 -19 -2 -42 -12 -52 -23 -18 -20 -18 -20 -6 5 l12 25
-29 -25 c-20 -18 -24 -19 -14 -5 74 101 216 235 388 364 79 60 99 80 67 67
-22 -8 -18 2 6 15 15 8 19 8 15 0 -11 -18 -1 -13 55 25 68 47 46 42 -141 -28
-195 -73 -311 -129 -342 -167 -32 -37 -64 -139 -73 -233 -4 -38 -10 -69 -14
-69 -30 -6 -49 -5 -44 4 4 7 -17 8 -63 3 -38 -4 -72 -12 -75 -18 -6 -9 -11 -9
-21 -1 -10 9 -13 2 -11 -35 1 -26 -1 -36 -4 -22 -8 41 -32 109 -47 133 -21 33
-30 86 -16 101 8 11 7 38 -5 111 -17 110 -20 384 -3 421 12 26 52 45 100 48
20 2 32 7 30 15 -1 6 -4 21 -5 32 -2 11 -14 26 -28 33 -16 8 -23 19 -21 35 1
16 -4 24 -18 28 -11 3 -20 12 -20 19 0 19 -34 18 -51 -2 -7 -8 -30 -25 -52
-36 -36 -18 -45 -19 -103 -7 -35 7 -64 16 -64 21 0 4 -11 8 -24 8 -41 0 -37
25 6 43 21 10 44 14 50 11 7 -4 8 -2 4 4 -4 7 -2 12 4 12 20 0 72 42 67 54 -3
6 7 12 24 13 22 2 41 -10 83 -48 51 -46 55 -48 68 -31 20 29 43 32 98 16 66
-20 294 -56 344 -55 45 1 111 31 111 51 0 7 6 15 13 18 6 2 12 -4 12 -13 0 -9
4 -14 8 -11 5 3 20 -1 34 -8 36 -19 124 -26 145 -11 10 7 42 13 71 14 71 1 87
12 102 68 7 26 16 53 19 58 11 19 17 -50 8 -95z m790 78 c-3 -8 -6 -5 -6 6 -1
11 2 17 5 13 3 -3 4 -12 1 -19z m-3982 -26 c-3 -3 -11 0 -18 7 -9 10 -8 11 6
5 10 -3 15 -9 12 -12z m45 -10 c0 -15 -2 -15 -10 -2 -13 20 -13 33 0 25 6 -3
10 -14 10 -23z m1314 -101 c9 -57 15 -105 13 -108 -5 -4 -19 73 -33 172 -12
92 4 41 20 -64z m2609 94 c-3 -9 -8 -14 -10 -11 -3 3 -2 9 2 15 9 16 15 13 8
-4z m-3862 -22 l24 -26 -27 19 c-15 10 -28 22 -28 27 0 12 5 8 31 -20z m-715
1 c-9 -8 -16 -21 -16 -27 0 -8 4 -7 12 1 24 24 40 14 33 -20 -10 -44 -17 -50
-48 -39 -35 14 -38 62 -5 85 29 21 44 21 24 0z m834 -44 c18 -12 2 -12 -25 0
-13 6 -15 9 -5 9 8 0 22 -4 30 -9z m264 -18 c-9 -16 -25 -39 -36 -53 l-19 -24
12 25 c15 31 49 80 55 80 3 0 -2 -13 -12 -28z m-1499 -20 c-15 -16 -16 -15 -4
12 7 15 15 23 17 16 3 -7 -3 -19 -13 -28z m5679 23 c3 -8 1 -15 -4 -15 -6 0
-10 7 -10 15 0 8 2 15 4 15 2 0 6 -7 10 -15z m-254 -28 c0 -7 -5 -18 -12 -25
-6 -6 -32 -52 -57 -101 -25 -50 -59 -106 -75 -126 -27 -34 -30 -35 -47 -19
-19 17 -26 50 -11 56 15 6 63 98 48 92 -8 -3 -20 -19 -26 -35 -14 -33 -30 -47
-30 -27 0 21 43 69 64 72 19 3 126 103 126 118 0 5 5 8 10 8 6 0 10 -6 10 -13z
m-3663 -112 c-49 -47 -103 -92 -120 -101 -18 -9 -41 -24 -52 -32 -11 -9 15 19
57 62 48 49 82 75 89 70 7 -4 9 -3 6 3 -6 10 29 49 42 47 3 -1 5 2 3 8 -1 5 1
7 6 4 5 -3 18 1 28 9 43 33 24 10 -59 -70z m-1267 60 c0 -8 -2 -15 -4 -15 -2
0 -6 7 -10 15 -3 8 -1 15 4 15 6 0 10 -7 10 -15z m4808 -30 c-3 -3 -9 2 -12
12 -6 14 -5 15 5 6 7 -7 10 -15 7 -18z m-3758 -38 c-8 -7 -36 -43 -62 -82 -26
-38 -57 -76 -70 -84 -22 -13 -22 -12 3 15 14 16 36 45 50 64 13 19 28 41 34
47 5 7 19 24 30 37 11 14 22 22 25 20 3 -3 -2 -11 -10 -17z m-1545 3 c-3 -5
-12 -7 -20 -3 -21 7 -19 13 6 13 11 0 18 -4 14 -10z m2392 -22 c-3 -7 -5 -2
-5 12 0 14 2 19 5 13 2 -7 2 -19 0 -25z m2679 -68 l39 -45 -43 38 c-24 21 -47
35 -52 32 -12 -7 -12 -3 -4 20 4 9 10 13 14 8 4 -4 25 -28 46 -53z m-3190 31
c-3 -4 -19 -14 -35 -21 -17 -7 -29 -16 -28 -20 1 -4 -2 -8 -7 -8 -5 0 -12 -6
-16 -12 -5 -8 -10 -9 -14 -1 -4 6 16 23 46 41 58 33 62 34 54 21z m3148 -27
c-1 -5 6 -15 15 -22 9 -8 10 -11 4 -7 -20 10 -15 -6 9 -32 12 -13 32 -23 44
-23 13 0 25 -4 29 -10 3 -5 12 -7 21 -3 18 7 57 -26 50 -43 -3 -8 0 -11 8 -8
8 3 17 1 21 -5 3 -7 0 -8 -9 -5 -9 3 -16 1 -16 -6 0 -6 -4 -9 -9 -6 -4 3 -1
-14 7 -38 9 -25 20 -42 24 -40 4 3 18 -2 30 -12 20 -14 20 -15 3 -9 -11 4 -29
8 -39 9 -11 0 -20 9 -22 19 -1 10 -10 27 -18 36 -9 10 -13 21 -9 25 4 4 0 4
-10 0 -20 -7 -21 -15 -4 -33 6 -7 -6 -1 -27 13 l-39 26 -24 -32 c-13 -18 -31
-48 -38 -65 -16 -37 -30 -45 -20 -12 5 15 4 19 -4 15 -14 -9 -14 5 -1 39 6 16
6 32 0 43 -5 9 -11 29 -15 44 -3 15 -14 32 -25 38 -17 9 -19 8 -14 -7 3 -10
-3 -4 -14 12 l-20 30 40 41 c36 37 75 52 72 28z m-4126 0 c12 -4 22 -10 22
-15 0 -9 -50 -2 -85 12 -17 6 -15 8 10 8 17 1 40 -2 53 -5z m378 -51 c-10 -10
-19 5 -10 18 6 11 8 11 12 0 2 -7 1 -15 -2 -18z m522 -28 c-3 -3 -9 2 -12 12
-6 14 -5 15 5 6 7 -7 10 -15 7 -18z m490 -134 c29 -87 52 -160 52 -163 0 -2
-30 6 -67 18 -38 13 -78 24 -91 24 -25 0 -26 20 -2 28 7 3 10 0 7 -5 -4 -6 4
-9 21 -6 15 2 33 5 40 5 6 1 12 6 12 12 0 6 5 4 10 -4 8 -12 10 -9 10 12 0 15
-4 30 -10 33 -5 3 -10 12 -10 18 0 7 4 6 10 -3 17 -26 12 12 -7 56 -9 22 -17
44 -18 49 -3 38 -18 74 -27 69 -7 -4 -8 -2 -4 4 4 7 11 12 15 12 4 0 31 -71
59 -159z m142 138 c0 -6 -4 -7 -10 -4 -5 3 -10 11 -10 16 0 6 5 7 10 4 6 -3
10 -11 10 -16z m2709 -13 c-3 -3 -11 5 -18 17 -13 21 -12 21 5 5 10 -10 16
-20 13 -22z m-328 -101 c-23 -25 -39 -50 -36 -55 3 -6 1 -10 -4 -10 -22 0 -10
25 31 67 56 57 62 55 9 -2z m761 -30 c16 -27 36 -67 45 -87 10 -24 23 -38 34
-38 10 0 20 -3 22 -7 13 -21 -165 3 -238 32 -22 8 -30 13 -17 11 12 -2 22 0
22 5 0 5 7 9 16 9 14 0 15 2 3 16 -15 18 -18 18 49 -1 31 -9 28 0 -10 24 -18
11 -27 21 -20 21 6 0 12 9 12 19 0 67 41 65 82 -4z m-585 -7 c-3 -8 -6 -5 -6
6 -1 11 2 17 5 13 3 -3 4 -12 1 -19z m-2837 6 c0 -8 -19 -13 -24 -6 -3 5 1 9
9 9 8 0 15 -2 15 -3z m2240 -153 c-6 -69 -12 -126 -13 -126 -87 -25 -402 -188
-597 -309 -157 -98 -193 -116 -143 -70 l28 25 -33 -16 c-48 -23 -132 -32 -143
-14 -10 17 11 27 61 28 44 1 93 27 195 104 116 88 360 291 432 360 94 90 217
178 222 159 2 -9 -2 -72 -9 -141z m-1790 102 c14 -20 24 -41 23 -45 -2 -4 1
-8 7 -8 5 0 35 -33 67 -72 91 -115 268 -320 304 -353 18 -16 -1 8 -42 55 -69
79 -189 225 -213 260 -6 8 1 5 15 -7 14 -13 31 -23 37 -23 7 0 12 -10 12 -22
1 -21 2 -21 11 -5 12 20 31 13 22 -9 -3 -8 -2 -14 3 -12 16 5 64 -34 57 -46
-3 -6 -3 -8 2 -4 4 4 14 0 22 -10 12 -16 13 -15 6 3 -8 24 37 -27 56 -63 7
-12 16 -20 21 -17 6 4 7 -1 3 -11 -4 -11 -3 -15 5 -10 6 3 14 -3 18 -16 3 -12
15 -31 25 -42 11 -11 19 -25 19 -32 0 -6 7 -17 15 -24 8 -7 12 -17 8 -23 -4
-7 0 -8 12 -3 18 7 18 6 0 -13 -18 -20 -17 -21 18 -36 20 -8 48 -15 62 -15 28
0 30 -7 13 -44 -10 -23 -15 -25 -52 -20 -59 9 -72 18 -189 125 -113 103 -305
252 -406 314 -33 21 -61 41 -61 44 0 16 64 221 69 221 3 0 17 -17 31 -37z
m-1507 12 c-3 -9 -8 -14 -10 -11 -3 3 -2 9 2 15 9 16 15 13 8 -4z m1057 -10
c0 -8 -7 -15 -16 -15 -14 0 -14 3 -4 15 7 8 14 15 16 15 2 0 4 -7 4 -15z
m2595 -152 c-4 -40 -11 -73 -17 -73 -6 0 -7 7 -4 16 3 8 2 13 -3 10 -5 -3 -25
1 -45 9 -19 8 -47 15 -61 15 -14 0 -25 3 -25 6 0 6 77 100 124 152 l31 33 3
-48 c2 -26 1 -81 -3 -120z m966 119 c6 -20 16 -43 22 -49 7 -10 2 -13 -19 -13
-22 0 -26 3 -14 10 12 7 13 13 3 27 -6 10 -16 17 -23 15 -6 -1 -9 2 -5 8 3 6
11 8 16 5 5 -3 6 1 3 9 -3 9 -10 13 -15 10 -5 -3 -6 2 -3 10 9 23 21 11 35
-32z m-1772 35 c-2 -2 -17 -11 -34 -21 l-30 -17 24 20 c13 12 28 21 34 21 6 0
8 -1 6 -3z m2326 -17 c-27 -12 -43 -12 -25 0 8 5 22 9 30 9 10 0 8 -3 -5 -9z
m-5210 -61 c-13 -25 -19 -29 -26 -18 -5 8 -9 20 -9 28 0 11 3 11 15 1 12 -10
15 -7 21 17 4 15 9 23 11 16 2 -6 -3 -26 -12 -44z m1088 24 c-7 -2 -21 -2 -30
0 -10 3 -4 5 12 5 17 0 24 -2 18 -5z m931 -85 c-3 -4 0 -16 5 -26 11 -21 43
-164 37 -169 -6 -6 -22 21 -43 72 -20 47 -28 99 -24 155 l2 25 13 -25 c8 -14
12 -28 10 -32z m2153 -10 c-2 -13 -4 -3 -4 22 0 25 2 35 4 23 2 -13 2 -33 0
-45z m-3700 20 c-3 -8 -6 -5 -6 6 -1 11 2 17 5 13 3 -3 4 -12 1 -19z m3920
-29 c8 -8 3 -30 -16 -77 -21 -53 -40 -81 -95 -134 -38 -38 -71 -66 -74 -63 -2
2 17 28 42 57 54 62 106 159 106 200 0 29 17 37 37 17z m-3227 -86 c10 -32 18
-59 16 -60 -1 -2 -11 15 -22 36 -10 22 -21 38 -24 36 -3 -2 -12 6 -20 18 -12
19 -11 20 2 10 12 -11 14 -8 11 20 -3 26 -2 29 7 14 6 -9 20 -43 30 -74z m300
16 c12 -9 12 -10 -4 -5 -13 5 -17 2 -12 -9 3 -8 1 -15 -4 -15 -6 0 -10 9 -10
20 0 22 8 25 30 9z m-551 -16 c11 10 12 7 6 -13 -15 -51 -22 -53 -33 -9 -9 36
-9 41 2 27 10 -14 15 -15 25 -5z m-35 -40 c22 -65 21 -93 -4 -93 -11 0 -21 6
-21 13 -1 6 -2 24 -3 39 -2 31 -22 58 -45 58 -13 1 -13 3 3 15 35 27 53 18 70
-32z m2866 25 c0 7 5 10 10 7 11 -7 -18 -65 -32 -65 -10 0 -10 32 -2 55 5 13
8 14 15 3 7 -10 9 -11 9 0z m-3595 -56 c-3 -3 -11 0 -18 7 -9 10 -8 11 6 5 10
-3 15 -9 12 -12z m3735 8 c10 -6 11 -10 3 -10 -7 0 -25 -18 -39 -40 -22 -33
-29 -38 -45 -29 -19 10 -19 11 3 50 22 40 47 49 78 29z m301 -52 c-7 -20 -9
-18 -13 15 -5 43 3 58 14 27 4 -11 4 -30 -1 -42z m-3631 37 c7 -9 8 -15 2 -15
-5 0 -12 7 -16 15 -3 8 -4 15 -2 15 2 0 9 -7 16 -15z m-825 -5 c3 -5 1 -10 -4
-10 -6 0 -11 5 -11 10 0 6 2 10 4 10 3 0 8 -4 11 -10z m2382 -12 c-3 -8 -6 -5
-6 6 -1 11 2 17 5 13 3 -3 4 -12 1 -19z m1083 12 c12 -8 10 -9 -7 -7 -12 2
-26 6 -29 10 -11 11 19 8 36 -3z m-3255 -70 c10 -11 14 -20 8 -20 -5 0 -18 9
-28 20 -10 11 -14 20 -8 20 5 0 18 -9 28 -20z m925 -62 c0 -11 -28 -10 -35 1
-3 6 4 9 15 8 11 -1 20 -5 20 -9z m930 -8 c0 -5 -7 -7 -15 -4 -8 4 -12 10 -9
15 6 11 24 2 24 -11z m-671 -136 c2 -2 -4 -4 -14 -4 -15 0 -14 -5 9 -35 15
-19 25 -35 22 -35 -9 0 -43 36 -62 65 l-17 26 29 -7 c16 -4 31 -8 33 -10z
m1161 -91 c0 -41 -17 -43 -59 -7 -28 24 -39 52 -25 66 3 3 23 -1 45 -10 35
-13 39 -19 39 -49z m100 19 c0 -13 -32 -39 -57 -44 -17 -5 -22 0 -25 23 -4 28
-3 29 39 29 24 0 43 -4 43 -8z m536 -191 c-3 -5 -23 -19 -43 -30 l-38 -21 35
30 c33 29 57 40 46 21z m-1798 -287 c25 -74 63 -157 92 -204 l22 -35 -25 29
c-13 15 -35 49 -48 75 -14 25 -29 47 -34 48 -5 1 -11 7 -13 15 -2 9 0 8 7 -2
12 -17 14 -6 4 28 -4 18 -8 21 -15 10 -7 -10 -8 -9 -4 4 3 10 1 28 -3 40 l-9
23 -9 -25 c-6 -14 -9 -43 -7 -65 l3 -40 -9 35 c-6 19 -9 69 -8 110 1 41 -2
100 -6 130 -6 49 -4 46 17 -30 13 -47 33 -112 45 -146z m1357 5 c25 -48 45
-94 45 -102 0 -7 -9 -22 -20 -32 -15 -14 -29 -16 -65 -10 -34 5 -53 2 -70 -9
-36 -23 -38 -20 -15 24 16 32 20 59 20 143 0 57 3 107 7 110 13 14 53 -37 98
-124z m-1034 -256 c12 -18 26 -30 32 -26 6 4 7 1 2 -6 -4 -8 2 -25 14 -42 12
-16 17 -29 12 -29 -10 0 -108 148 -117 177 -6 18 17 -12 57 -74z m849 -185 c0
-11 -39 -20 -60 -13 -33 10 -23 20 20 20 22 0 40 -3 40 -7z m-1506 -82 c-6
-15 -24 -23 -24 -11 0 8 24 34 28 30 1 -1 0 -10 -4 -19z m1436 19 c0 -2 -10
-9 -22 -15 -22 -11 -22 -10 -4 4 21 17 26 19 26 11z m425 -35 c5 8 11 8 20 0
22 -19 11 -115 -23 -195 -33 -81 -37 -118 -17 -195 11 -44 12 -63 2 -100 l-12
-45 -6 80 c-5 52 -15 96 -30 125 -13 26 -22 63 -22 90 0 26 -3 37 -7 25 -13
-36 -21 13 -14 83 5 50 13 71 28 84 15 12 17 17 7 18 -11 0 -12 3 -3 12 8 8
15 8 26 -1 11 -9 16 -9 22 0 4 8 3 9 -4 5 -8 -5 -10 -2 -6 9 5 11 10 13 19 5
10 -8 15 -8 20 0z m-1913 -52 c-12 -12 -25 -18 -29 -14 -4 4 1 14 12 23 11 8
19 20 17 26 -2 9 0 8 9 -1 11 -10 9 -16 -9 -34z m-29 13 c-12 -10 -19 -22 -15
-26 4 -5 -1 -5 -10 -2 -12 4 -18 1 -18 -7 0 -7 -21 -21 -47 -30 -27 -10 -56
-21 -65 -27 -14 -7 -18 -5 -18 6 0 9 -6 12 -15 9 -8 -4 -15 -4 -15 -1 0 3 33
17 73 32 41 14 87 35 103 46 37 24 56 24 27 0z m218 -34 c-10 -9 -11 -8 -5 6
3 10 9 15 12 12 3 -3 0 -11 -7 -18z m1600 -11 c-6 -14 -15 -26 -20 -26 -6 0
-2 13 7 29 20 36 26 34 13 -3z m-56 -6 c-10 -11 -23 -20 -28 -20 -6 0 0 9 13
20 13 11 25 20 28 20 3 0 -3 -9 -13 -20z m-4357 -170 c5 -30 -23 -98 -54 -134
-22 -25 -27 -27 -39 -15 -12 12 -8 27 26 97 40 82 61 98 67 52z m1112 3 c-1
-22 -11 -34 -46 -56 -27 -18 -51 -26 -61 -22 -14 5 -15 8 -4 15 8 4 19 6 26 4
6 -3 22 7 35 21 26 28 17 35 -12 8 -10 -9 -21 -13 -25 -9 -4 3 2 13 13 20 10
8 28 21 39 30 28 22 35 20 35 -11z m369 -39 c-6 -8 -20 -14 -30 -14 -11 0 -23
-10 -29 -24 -11 -29 -26 -40 -35 -26 -3 5 -1 10 4 10 6 0 11 5 11 11 0 5 -4 7
-10 4 -5 -3 -10 -2 -10 3 0 13 59 54 70 47 6 -3 10 -2 10 4 0 6 7 8 15 5 12
-5 13 -10 4 -20z m838 -36 c-3 -8 -6 -5 -6 6 -1 11 2 17 5 13 3 -3 4 -12 1
-19z m-1097 -31 c0 8 7 10 17 6 14 -5 12 -8 -10 -16 -15 -5 -35 -6 -45 -2 -15
6 -15 8 3 15 12 4 23 3 27 -4 6 -8 8 -7 8 1z m140 -38 c0 -13 -24 -11 -45 4
-16 13 -15 14 13 9 18 -2 32 -8 32 -13z m540 -60 c0 -31 -4 -48 -10 -44 -5 3
-10 26 -10 51 0 24 5 44 10 44 6 0 10 -23 10 -51z m1086 -67 c20 -51 34 -95
32 -98 -8 -7 -77 147 -84 186 -9 52 9 22 52 -88z m-2266 87 c0 -5 -4 -8 -9 -5
-5 4 -11 0 -14 -6 -2 -7 -8 -9 -13 -5 -5 4 -2 12 6 17 20 13 30 12 30 -1z
m-58 -51 c-6 -6 -15 -8 -19 -4 -4 4 -1 11 7 16 19 12 27 3 12 -12z"/>
<path d="M4150 3430 c-9 -6 -10 -10 -3 -10 6 0 15 5 18 10 8 12 4 12 -15 0z"/>
<path d="M4100 3411 c-8 -6 -18 -7 -22 -5 -4 3 -8 -2 -8 -11 0 -14 3 -14 28 2
36 23 37 23 26 23 -5 0 -16 -4 -24 -9z"/>
<path d="M4368 2663 c-53 -138 -100 -300 -106 -361 -3 -37 -8 -58 -13 -51 -5
9 -10 4 -15 -17 -4 -16 -11 -31 -15 -34 -14 -10 12 -75 46 -116 28 -33 35 -37
49 -25 9 7 16 23 16 34 0 11 3 17 7 13 9 -9 42 71 42 104 1 28 14 48 77 119
51 58 77 107 103 198 24 83 26 121 6 147 -19 25 -36 16 -50 -24 -8 -24 -21
-38 -43 -47 -31 -12 -33 -12 -44 12 -6 14 -18 25 -25 25 -11 0 -13 10 -7 45 3
25 4 45 2 45 -2 0 -16 -30 -30 -67z m19 -85 c-3 -8 -6 -5 -6 6 -1 11 2 17 5
13 3 -3 4 -12 1 -19z m-5 -86 l-5 -47 22 25 22 25 -6 -45 c-7 -54 -30 -84 -45
-60 -8 12 -10 10 -11 -10 -1 -19 -3 -20 -6 -7 -7 27 18 192 27 177 4 -6 5 -33
2 -58z"/>
<path d="M4534 2025 c-10 -8 -14 -15 -8 -15 6 0 17 7 24 15 16 19 9 19 -16 0z"/>
<path d="M4410 1960 c0 -5 5 -10 11 -10 5 0 7 5 4 10 -3 6 -8 10 -11 10 -2 0
-4 -4 -4 -10z"/>
<path d="M2636 2685 c-9 -14 -15 -25 -13 -25 2 0 13 11 25 25 12 14 18 25 13
25 -5 0 -16 -11 -25 -25z"/>
<path d="M3261 2364 c0 -11 3 -14 6 -6 3 7 2 16 -1 19 -3 4 -6 -2 -5 -13z"/>
<path d="M3550 2371 c11 -22 30 -37 30 -24 -1 11 -26 43 -34 43 -4 0 -2 -9 4
-19z"/>
<path d="M2880 2052 c0 -12 19 -26 26 -19 2 2 -2 10 -11 17 -9 8 -15 8 -15 2z"/>
<path d="M3100 1315 c0 -5 5 -17 10 -25 5 -8 10 -10 10 -5 0 6 -5 17 -10 25
-5 8 -10 11 -10 5z"/>
<path d="M717 4078 c11 -13 18 -29 16 -36 -3 -9 1 -12 13 -10 10 2 19 -3 20
-9 1 -7 2 -19 3 -26 0 -8 9 -23 19 -35 9 -11 23 -29 30 -39 7 -10 11 -13 8 -8
-3 6 0 17 5 25 8 13 12 12 24 -4 11 -14 12 -22 4 -27 -8 -5 -8 -8 0 -13 6 -4
11 -2 11 4 0 6 5 8 10 5 16 -10 12 5 -11 41 -22 37 -146 154 -162 154 -6 0 -1
-10 10 -22z"/>
<path d="M1006 4078 c10 -13 42 -47 70 -78 209 -226 325 -352 362 -393 23 -26
45 -47 47 -47 6 0 -91 128 -109 145 -6 6 -23 28 -38 50 -30 44 -144 188 -223
283 -45 55 -54 61 -89 61 l-39 1 19 -22z"/>
<path d="M6365 4090 c3 -5 10 -10 16 -10 5 0 9 5 9 10 0 6 -7 10 -16 10 -8 0
-12 -4 -9 -10z"/>
<path d="M6435 4090 c3 -5 8 -10 11 -10 2 0 4 5 4 10 0 6 -5 10 -11 10 -5 0
-7 -4 -4 -10z"/>
<path d="M6400 4080 c0 -18 23 -59 31 -54 10 6 -10 64 -22 64 -5 0 -9 -4 -9
-10z"/>
<path d="M6270 4076 c0 -2 7 -7 16 -10 8 -3 12 -2 9 4 -6 10 -25 14 -25 6z"/>
<path d="M653 3983 c-7 -2 -13 -9 -13 -15 0 -14 43 -6 48 10 4 12 -12 15 -35
5z"/>
<path d="M735 3980 c-3 -5 -1 -10 4 -10 6 0 11 5 11 10 0 6 -2 10 -4 10 -3 0
-8 -4 -11 -10z"/>
<path d="M2853 3891 c-1 -11 5 -26 14 -33 14 -11 15 -10 8 12 -10 34 -20 44
-22 21z"/>
<path d="M2884 3887 c3 -10 6 -24 6 -31 0 -7 36 -41 80 -74 45 -34 76 -54 71
-44 -17 29 -164 168 -157 149z"/>
<path d="M6386 3447 c3 -10 9 -15 12 -12 3 3 0 11 -7 18 -10 9 -11 8 -5 -6z"/>
<path d="M7050 3121 c-172 -35 -288 -73 -360 -117 l-25 -15 25 5 c14 3 95 21
180 40 85 19 198 40 250 46 167 19 160 17 160 50 0 38 2 38 -230 -9z"/>
<path d="M1292 3138 c6 -18 28 -21 28 -4 0 9 -7 16 -16 16 -9 0 -14 -5 -12
-12z"/>
<path d="M1462 3118 c15 -13 35 -35 46 -48 14 -18 21 -20 27 -10 5 8 4 11 -2
7 -5 -3 -20 7 -31 23 -12 16 -32 34 -45 41 -19 9 -18 7 5 -13z"/>
<path d="M5541 3054 c0 -11 3 -14 6 -6 3 7 2 16 -1 19 -3 4 -6 -2 -5 -13z"/>
<path d="M1577 3031 c18 -16 28 -33 23 -36 -6 -3 -10 -2 -10 3 0 5 -12 17 -27
26 -62 37 108 -110 182 -158 110 -72 113 -73 98 -54 -15 17 -7 29 13 21 8 -3
11 -10 7 -16 -4 -6 -1 -7 6 -2 7 4 20 -1 32 -14 27 -29 24 -36 -7 -16 -14 9
-28 15 -30 12 -6 -5 257 -177 271 -177 4 0 -17 23 -44 51 -28 28 -48 55 -46
59 3 5 -34 30 -82 56 -49 26 -109 62 -134 80 -52 37 -59 40 -59 21 0 -7 16
-19 36 -26 26 -9 33 -16 25 -24 -7 -7 -16 -6 -28 5 -10 8 -26 18 -36 21 -14 5
-16 11 -7 26 12 23 0 34 -27 25 -12 -4 -14 -3 -5 3 12 9 3 17 -133 111 -50 34
-50 34 -18 3z m97 -71 c26 -22 45 -40 41 -40 -4 0 -2 -7 5 -15 7 -8 16 -12 21
-9 5 3 9 0 9 -5 0 -6 -2 -11 -5 -11 -9 0 -58 33 -80 53 -11 11 -30 26 -42 34
-21 14 -23 33 -5 33 4 0 29 -18 56 -40z"/>
<path d="M1670 2946 c0 -2 8 -10 18 -17 15 -13 16 -12 3 4 -13 16 -21 21 -21
13z"/>
<path d="M5630 2970 c0 -5 5 -10 10 -10 6 0 10 5 10 10 0 6 -4 10 -10 10 -5 0
-10 -4 -10 -10z"/>
<path d="M7125 2919 c-134 -23 -208 -45 -351 -103 -107 -44 -109 -45 -107 -76
0 -17 3 -34 6 -36 3 -3 54 17 113 44 60 28 134 61 164 75 30 14 100 39 155 55
55 17 118 37 140 46 56 21 18 19 -120 -5z m30 -15 c-28 -11 -180 -52 -183 -49
-5 5 56 32 98 44 34 9 105 14 85 5z"/>
<path d="M5826 2895 c-9 -26 -7 -32 5 -12 6 10 9 21 6 23 -2 3 -7 -2 -11 -11z"/>
<path d="M7157 2835 c-153 -45 -417 -153 -417 -171 0 -3 3 -3 8 -1 94 56 433
179 449 164 6 -7 -42 -56 -71 -72 -15 -9 -19 -24 -20 -87 -1 -72 1 -78 28
-107 17 -17 33 -31 37 -31 3 0 12 15 20 33 7 17 21 43 31 56 10 13 18 35 18
48 0 16 7 27 20 30 18 5 20 14 20 89 0 46 -1 84 -2 84 -2 -1 -56 -16 -121 -35z
m43 -215 c0 -5 -2 -10 -4 -10 -3 0 -8 5 -11 10 -3 6 -1 10 4 10 6 0 11 -4 11
-10z"/>
<path d="M7030 2746 c0 -2 7 -9 15 -16 9 -7 15 -8 15 -2 0 5 -7 12 -15 16 -8
3 -15 4 -15 2z"/>
<path d="M2080 2710 c8 -5 20 -10 25 -10 6 0 3 5 -5 10 -8 5 -19 10 -25 10 -5
0 -3 -5 5 -10z"/>
<path d="M6985 2659 c3 -4 -11 -21 -30 -38 -20 -17 -32 -31 -27 -31 4 0 25 17
45 38 24 24 32 39 23 39 -8 0 -13 -4 -11 -8z"/>
<path d="M7070 2640 c0 -5 5 -10 10 -10 6 0 10 5 10 10 0 6 -4 10 -10 10 -5 0
-10 -4 -10 -10z"/>
<path d="M826 2467 c3 -10 9 -15 12 -12 3 3 0 11 -7 18 -10 9 -11 8 -5 -6z"/>
<path d="M1128 2433 c7 -3 16 -2 19 1 4 3 -2 6 -13 5 -11 0 -14 -3 -6 -6z"/>
<path d="M5571 2400 c-12 -22 -20 -40 -18 -40 11 0 56 69 49 74 -5 3 -19 -13
-31 -34z"/>
<path d="M2159 2373 c-13 -16 -12 -17 4 -4 9 7 17 15 17 17 0 8 -8 3 -21 -13z"/>
<path d="M2385 2300 c7 -147 56 -314 103 -353 8 -6 1 13 -16 43 -35 63 -57
142 -77 285 -14 99 -14 99 -10 25z"/>
<path d="M2087 2339 c7 -9 10 -19 6 -22 -3 -4 -2 -7 4 -7 5 0 18 10 29 22 15
19 16 20 2 9 -15 -11 -21 -11 -35 0 -16 12 -17 12 -6 -2z"/>
<path d="M2331 2319 c0 -13 4 -33 9 -44 7 -14 8 -8 3 20 -7 46 -13 59 -12 24z"/>
<path d="M6920 2325 c0 -2 6 -8 13 -14 10 -8 14 -7 14 2 0 8 -6 14 -14 14 -7
0 -13 -1 -13 -2z"/>
<path d="M2049 2273 l-24 -28 30 25 c17 14 32 26 34 28 2 1 0 2 -6 2 -5 0 -20
-12 -34 -27z"/>
<path d="M2290 2289 c0 -5 5 -7 10 -4 6 3 10 8 10 11 0 2 -4 4 -10 4 -5 0 -10
-5 -10 -11z"/>
<path d="M1331 2261 c-8 -5 -9 -11 -3 -15 5 -3 12 1 16 9 6 17 6 18 -13 6z"/>
<path d="M1527 2179 c7 -7 15 -10 18 -7 3 3 -2 9 -12 12 -14 6 -15 5 -6 -5z"/>
<path d="M6588 2173 c7 -3 16 -2 19 1 4 3 -2 6 -13 5 -11 0 -14 -3 -6 -6z"/>
<path d="M6685 2149 c41 -14 305 -23 332 -12 15 5 -11 8 -80 8 -56 0 -142 3
-192 7 -64 5 -81 4 -60 -3z"/>
<path d="M7055 2150 c-3 -5 -1 -10 4 -10 6 0 11 5 11 10 0 6 -2 10 -4 10 -3 0
-8 -4 -11 -10z"/>
<path d="M6682 2119 c10 -7 10 -9 -2 -9 -12 -1 -12 -3 3 -14 15 -12 16 -14 2
-20 -16 -6 -21 -56 -5 -56 6 0 10 -7 10 -15 0 -8 5 -15 10 -15 6 0 8 -11 4
-25 -3 -14 -3 -25 0 -25 8 0 37 66 41 89 1 8 7 17 12 18 16 6 -3 -69 -34 -135
-28 -59 -55 -92 -75 -92 -9 1 -8 4 2 13 22 18 24 39 3 35 -9 -2 -28 -19 -41
-38 -29 -43 -41 -49 -35 -15 5 22 2 25 -21 25 -15 0 -45 -9 -66 -20 -35 -18
-44 -29 -42 -51 1 -10 -37 -25 -148 -59 -111 -34 -246 -97 -293 -136 -36 -30
-31 -30 78 5 118 38 305 95 380 116 88 24 222 74 290 108 124 61 361 212 301
190 -13 -4 -17 -3 -12 5 8 14 -17 6 -97 -33 -35 -16 -61 -22 -77 -18 -46 12
-52 42 -15 75 13 11 22 26 18 31 -3 6 -2 7 3 4 6 -3 16 -1 24 4 11 8 2 9 -30
5 -57 -8 -37 7 40 31 67 20 52 28 -26 14 -68 -13 -100 -13 -64 0 19 7 14 8
-22 5 -27 -2 -48 0 -48 4 0 4 -18 7 -41 7 -26 0 -36 -3 -27 -8z m95 -25 c-3
-3 -12 -4 -19 -1 -8 3 -5 6 6 6 11 1 17 -2 13 -5z m102 -158 c-2 -2 -29 -16
-59 -31 -48 -24 -52 -25 -33 -6 24 22 58 39 82 40 8 1 12 -1 10 -3z m-449
-231 c0 -8 -9 -15 -20 -15 -17 0 -19 2 -8 15 17 19 28 19 28 0z m-75 -25 c-27
-12 -43 -12 -25 0 8 5 22 9 30 9 10 0 8 -3 -5 -9z"/>
<path d="M2494 2085 c18 -74 28 -107 31 -103 6 5 -14 89 -26 107 -8 13 -9 13
-5 -4z"/>
<path d="M7175 2065 c-22 -13 -37 -25 -33 -25 9 0 78 41 78 46 0 6 -3 5 -45
-21z"/>
<path d="M3555 2050 c3 -5 11 -10 16 -10 6 0 7 5 4 10 -3 6 -11 10 -16 10 -6
0 -7 -4 -4 -10z"/>
<path d="M5491 2003 c-16 -32 -40 -79 -54 -106 -14 -26 -21 -45 -16 -41 11 6
112 204 104 204 -2 0 -18 -26 -34 -57z"/>
<path d="M2655 2040 c3 -5 8 -10 11 -10 2 0 4 5 4 10 0 6 -5 10 -11 10 -5 0
-7 -4 -4 -10z"/>
<path d="M2536 2007 c3 -10 9 -15 12 -12 3 3 0 11 -7 18 -10 9 -11 8 -5 -6z"/>
<path d="M5539 1993 l-24 -28 28 24 c25 23 32 31 24 31 -2 0 -14 -12 -28 -27z"/>
<path d="M7248 1964 c-31 -16 -38 -30 -10 -19 13 5 14 4 5 -6 -9 -9 -10 -16
-2 -26 22 -26 39 -15 39 27 0 22 -1 40 -2 40 -2 -1 -15 -8 -30 -16z"/>
<path d="M5723 1915 c0 -27 2 -38 4 -22 2 15 2 37 0 50 -2 12 -4 0 -4 -28z"/>
<path d="M2510 1933 c0 -15 178 -148 187 -139 3 2 -4 9 -15 15 -12 6 -55 38
-96 71 -42 33 -76 57 -76 53z"/>
<path d="M2635 1930 c3 -5 15 -10 26 -10 10 0 19 5 19 10 0 6 -12 10 -26 10
-14 0 -23 -4 -19 -10z"/>
<path d="M7095 1864 c-177 -121 -389 -215 -593 -264 -29 -7 -51 -14 -48 -17 2
-2 55 9 118 25 173 46 339 121 493 223 111 74 162 112 143 108 -2 0 -52 -34
-113 -75z"/>
<path d="M2237 1879 c7 -7 15 -10 18 -7 3 3 -2 9 -12 12 -14 6 -15 5 -6 -5z"/>
<path d="M6350 1870 c-8 -5 -10 -10 -5 -10 6 0 17 5 25 10 8 5 11 10 5 10 -5
0 -17 -5 -25 -10z"/>
<path d="M2295 1849 c6 -9 75 -33 80 -27 2 2 -16 11 -40 19 -25 9 -42 13 -40
8z"/>
<path d="M3338 1843 c12 -2 30 -2 40 0 9 3 -1 5 -23 4 -22 0 -30 -2 -17 -4z"/>
<path d="M1903 1808 c0 -18 -1 -73 -2 -121 -2 -74 0 -91 15 -101 16 -12 16
-14 -1 -24 -16 -8 -18 -20 -16 -68 2 -47 11 -74 42 -130 27 -49 42 -91 48
-138 5 -37 14 -73 20 -79 7 -9 5 -23 -6 -45 -15 -31 -15 -34 4 -55 11 -12 22
-29 25 -37 3 -10 10 -4 23 17 10 18 22 30 27 27 4 -3 5 1 2 9 -4 11 5 16 35
19 21 2 38 1 36 -2 -2 -3 8 -6 21 -6 28 -2 32 12 7 20 -10 2 -4 4 12 3 19 -1
30 -7 30 -17 0 -12 -13 -15 -62 -15 -33 0 -60 -2 -58 -6 2 -3 -2 -23 -10 -45
-19 -54 -19 -70 0 -50 8 8 15 19 15 25 0 6 5 11 10 11 6 0 10 7 10 15 0 18 14
19 43 4 16 -9 22 -9 25 0 2 6 10 11 18 11 9 0 13 4 10 9 -7 11 22 23 36 14 7
-3 8 -1 4 5 -7 12 26 171 44 207 5 11 14 39 20 63 12 47 27 58 65 48 24 -6 36
-36 15 -36 -16 0 -12 -79 6 -116 9 -19 29 -42 45 -51 16 -10 29 -20 29 -24 0
-16 39 4 43 22 5 20 37 27 37 8 0 -5 -5 -7 -11 -3 -7 4 -10 1 -7 -6 2 -7 15
-15 28 -17 13 -2 31 -10 40 -18 9 -8 22 -15 28 -15 20 0 13 -28 -8 -35 -21 -7
-28 -35 -9 -35 5 0 8 -4 4 -9 -3 -5 -1 -12 5 -16 5 -3 -2 -17 -18 -30 l-27
-24 40 6 c22 3 53 17 68 30 32 26 43 29 49 12 2 -7 10 -4 18 7 8 10 10 15 3
11 -7 -5 -21 1 -33 13 -26 26 -25 34 3 26 25 -6 68 17 66 37 0 9 -2 9 -6 0
-10 -26 -23 -12 -23 23 0 59 -52 83 -105 48 -14 -9 -25 -15 -26 -13 -6 32 -5
40 9 49 16 9 16 9 0 10 -10 0 -18 6 -18 13 0 19 -36 50 -49 43 -6 -4 -8 -13
-4 -21 3 -8 1 -15 -5 -15 -6 0 -17 -3 -26 -6 -12 -5 -16 0 -16 22 0 31 23 113
39 142 9 15 11 14 20 -9 5 -15 19 -29 30 -32 12 -3 21 -10 21 -16 0 -9 -6 -9
-21 0 -17 9 -23 8 -30 -2 -15 -25 -10 -37 22 -48 17 -6 42 -22 56 -37 28 -31
41 -28 66 16 13 23 15 36 8 43 -6 6 -11 20 -11 30 0 16 6 19 35 15 28 -3 35
-1 32 11 -2 10 -12 15 -25 14 -29 -3 -28 19 1 32 12 6 23 20 25 33 2 12 7 22
11 22 4 0 9 26 10 57 1 32 7 61 14 65 8 5 7 8 -5 8 -35 0 -98 -103 -98 -161 0
-33 -5 -35 -47 -14 -34 17 -58 41 -58 59 0 6 -4 11 -10 11 -5 0 -10 -11 -10
-25 0 -48 -28 -67 -41 -28 -3 12 -13 28 -20 36 -14 13 -18 31 -15 64 1 11 -7
20 -23 24 -13 3 -31 13 -40 22 -14 17 -16 21 -16 43 0 7 -10 1 -23 -12 -13
-13 -41 -40 -62 -59 l-37 -35 25 41 25 41 -63 60 c-34 33 -70 63 -79 66 -12 5
-15 13 -11 27 3 11 2 20 -4 20 -16 0 -17 -33 -2 -64 12 -25 12 -32 -2 -55 -21
-35 -29 -35 -52 -1 -27 40 -65 38 -65 -4 0 -27 -1 -28 -18 -13 -13 12 -21 14
-29 6 -6 -6 -20 -9 -32 -7 -20 3 -20 4 8 34 21 22 28 38 24 53 -3 12 0 28 7
36 14 16 14 16 -48 20 -23 2 -49 8 -57 15 -20 17 -29 7 -21 -24 3 -13 22 -34
42 -46 19 -12 33 -24 30 -27 -2 -3 -16 3 -30 12 -25 16 -26 16 -26 0 0 -14 -3
-15 -15 -5 -18 15 -20 34 -2 25 6 -4 1 3 -13 15 -14 12 -19 19 -12 15 13 -7
17 21 6 49 -10 26 -20 18 -21 -16z m424 -290 c-3 -8 -6 -5 -6 6 -1 11 2 17 5
13 3 -3 4 -12 1 -19z"/>
<path d="M7233 1797 c-26 -13 -48 -76 -39 -111 6 -24 25 -32 59 -27 11 2 9
-27 -3 -34 -5 -3 -10 -1 -10 5 0 6 -4 8 -10 5 -5 -3 -10 -15 -10 -26 0 -10 -4
-19 -10 -19 -5 0 -10 -7 -10 -15 0 -16 -38 -40 -48 -31 -3 4 -1 11 5 17 11 11
-1 55 -18 69 -3 3 -17 22 -31 43 -15 23 -29 34 -33 28 -3 -6 -18 -11 -32 -11
-16 0 -27 -7 -30 -20 -7 -28 -20 -25 -27 6 -8 30 -39 30 -44 -1 -5 -26 -21
-43 -19 -20 1 10 -4 20 -12 23 -8 3 -11 0 -7 -7 4 -6 2 -11 -3 -11 -16 0 -13
-12 10 -40 11 -14 19 -18 16 -10 -4 16 40 57 50 46 9 -8 -18 -37 -28 -30 -12
7 -11 1 5 -31 21 -41 4 -125 -25 -125 -5 0 -9 7 -9 15 0 8 -4 15 -10 15 -5 0
-10 -5 -10 -12 0 -6 -2 -9 -5 -6 -10 10 8 39 21 34 11 -4 11 -2 2 14 -11 18
-13 17 -30 -11 -20 -33 -39 -37 -63 -13 -15 15 -17 15 -35 -1 -11 -10 -20 -23
-20 -29 0 -22 60 -78 78 -73 9 2 23 6 31 8 20 6 34 -50 20 -83 -6 -15 -23 -31
-40 -37 -16 -5 -32 -17 -35 -25 -4 -11 -17 -14 -52 -9 -61 7 -79 -12 -93 -98
-14 -90 -29 -98 -29 -16 0 38 -4 67 -10 67 -5 0 -10 -6 -10 -12 0 -9 -3 -8
-10 2 -8 12 -14 10 -40 -15 -22 -21 -30 -25 -30 -13 0 9 6 23 13 30 13 14 16
23 27 81 6 31 5 37 -10 37 -9 0 -17 -6 -17 -13 0 -7 -13 -32 -28 -56 -22 -32
-30 -58 -33 -104 -5 -76 -17 -95 -43 -71 -10 9 -21 26 -25 37 -4 12 -17 30
-30 40 -28 22 -31 35 -7 33 27 -2 26 29 -2 44 -19 10 -30 11 -47 2 -13 -6 -39
-14 -57 -18 l-35 -6 17 26 c17 26 17 26 -10 26 -22 -1 -34 -10 -56 -45 -26
-41 -107 -116 -107 -99 0 4 -7 -1 -16 -12 -8 -10 -13 -13 -9 -6 3 6 1 12 -4
12 -6 0 -11 -14 -11 -31 0 -49 -19 -33 -60 51 -5 10 -19 14 -45 12 -28 -2 -35
0 -29 10 5 9 1 8 -11 -2 -11 -9 -16 -10 -11 -2 10 17 -5 15 -32 -4 -13 -9 -31
-14 -40 -12 -29 8 -62 -41 -62 -90 0 -25 -27 -67 -31 -48 -1 3 -2 10 -3 15 0
5 -4 13 -8 17 -5 4 -8 25 -8 46 0 21 -4 38 -10 38 -5 0 -10 5 -10 10 0 6 9 10
19 10 10 0 21 7 25 15 3 8 2 15 -3 15 -5 0 -11 16 -13 35 -4 39 -1 43 18 18
13 -17 13 -17 14 0 0 14 10 17 53 18 28 0 75 4 102 8 29 5 -10 6 -90 3 -154
-6 -148 -3 -185 -79 -27 -54 -26 -160 2 -155 12 2 19 -6 24 -25 3 -15 10 -41
15 -57 5 -16 9 -45 9 -64 0 -25 4 -33 14 -29 8 3 22 0 32 -8 10 -7 24 -11 30
-8 7 2 15 0 19 -6 3 -6 11 -11 16 -11 6 0 8 4 5 9 -3 5 6 9 20 9 24 0 25 -3
20 -32 -3 -17 -16 -39 -27 -48 -14 -12 -16 -18 -7 -18 7 0 22 14 31 30 10 16
22 30 28 30 15 0 10 -16 -11 -35 -25 -22 -26 -35 -2 -35 13 -1 11 -6 -11 -25
-19 -17 -23 -25 -13 -25 15 0 79 50 103 80 6 8 14 27 17 42 3 15 14 36 24 46
10 10 16 24 14 32 -3 7 0 10 6 6 14 -8 43 4 36 15 -3 5 -1 9 5 9 6 0 13 -11
17 -25 3 -13 12 -29 20 -36 23 -19 16 -34 -32 -65 -26 -16 -50 -31 -54 -34
-13 -9 -22 -50 -11 -50 6 0 11 7 11 15 0 8 7 15 15 15 11 0 15 -11 15 -40 0
-41 -8 -47 -38 -31 -13 7 -25 2 -46 -16 -25 -21 -27 -27 -18 -49 15 -31 8 -30
-55 6 -55 31 -68 46 -32 35 17 -6 20 -3 17 12 -2 12 -12 18 -28 18 -15 0 -24
-5 -22 -13 2 -10 -4 -11 -20 -6 -30 9 -235 112 -273 136 l-30 20 25 -22 c14
-12 100 -60 191 -106 345 -172 479 -273 643 -482 31 -39 59 -72 62 -72 8 0
-17 41 -44 73 -140 161 -222 239 -322 307 -57 38 -76 58 -47 47 8 -3 14 1 14
9 0 8 -4 14 -9 14 -5 0 -4 8 1 19 6 10 7 22 3 26 -4 5 -1 5 6 1 22 -13 62 2
62 23 0 15 10 20 51 25 61 8 78 -2 62 -36 -6 -13 -14 -36 -16 -53 -3 -16 -9
-38 -13 -49 -6 -16 -3 -17 24 -11 41 8 42 -7 2 -22 -33 -12 -39 -30 -14 -40
11 -4 24 5 41 26 26 33 53 41 53 16 0 -8 5 -24 12 -34 9 -15 17 -17 42 -10 27
7 29 7 14 -5 -24 -17 -23 -37 3 -70 26 -33 37 -33 33 2 -2 17 -1 19 3 7 3 -11
8 -22 12 -25 3 -3 11 -14 17 -24 5 -11 19 -21 31 -22 34 -6 73 -23 73 -33 0
-15 -18 -23 -25 -11 -8 12 -45 13 -45 1 0 -5 7 -14 15 -21 12 -10 12 -14 -3
-29 -9 -10 -25 -21 -35 -24 -21 -8 -19 -26 6 -41 17 -11 29 -3 40 29 3 6 16 0
30 -13 17 -17 27 -20 32 -12 6 9 10 9 16 -1 6 -10 9 -8 9 7 0 13 8 24 20 27
27 7 36 -11 14 -29 -14 -10 -15 -14 -4 -12 9 2 16 -7 18 -22 6 -41 42 -71 42
-35 0 12 13 15 60 15 49 0 60 3 60 17 0 23 10 10 16 -21 3 -18 -1 -28 -11 -32
-14 -6 -14 -8 0 -25 16 -17 15 -17 -6 -12 -15 4 -20 3 -15 -5 5 -8 46 -12 123
-12 l116 0 -7 63 c-3 34 -9 79 -12 100 -4 24 -2 37 5 37 7 0 11 -14 11 -32 -1
-18 2 -63 6 -100 l7 -68 153 0 154 0 0 905 c0 718 -3 905 -12 904 -7 -1 -23
-6 -35 -12z m-93 -197 c0 -5 -5 -10 -11 -10 -5 0 -7 5 -4 10 3 6 8 10 11 10 2
0 4 -4 4 -10z m23 -104 c20 -20 22 -26 10 -42 -12 -16 -13 -16 -13 -1 0 10
-11 22 -25 27 -27 10 -35 40 -10 40 8 0 25 -11 38 -24z m-325 -348 c-2 -31 -8
-44 -20 -46 -21 -4 -24 22 -8 62 15 41 32 31 28 -16z m-858 -38 c0 -5 -12 -10
-26 -10 -14 0 -23 4 -19 10 3 6 15 10 26 10 10 0 19 -4 19 -10z m276 -355 c-3
-8 -1 -15 5 -15 7 0 8 -7 4 -17 -16 -40 -35 -137 -28 -144 4 -4 16 -9 26 -11
16 -3 17 -5 3 -23 -13 -17 -18 -18 -33 -7 -10 7 -26 15 -35 18 -21 7 -22 16
-6 32 8 8 9 18 1 35 -10 21 -7 29 18 58 16 19 29 43 29 55 0 19 8 34 18 34 2
0 2 -7 -2 -15z m-83 -30 c-3 -9 -8 -14 -10 -11 -3 3 -2 9 2 15 9 16 15 13 8
-4z m137 -246 c0 -5 8 -9 18 -9 16 -1 16 -1 0 -10 -11 -7 -26 -7 -43 0 -22 8
-25 13 -15 25 12 14 40 10 40 -6z m147 -63 c-4 -9 -11 -16 -16 -16 -6 0 -8 7
-4 16 5 14 1 16 -23 11 l-29 -5 24 19 c21 18 26 18 39 5 8 -8 12 -22 9 -30z
m71 -160 c-7 -8 -15 -12 -17 -11 -5 6 10 25 20 25 5 0 4 -6 -3 -14z m-38 -31
c-14 -17 -30 -20 -30 -4 0 5 4 8 9 4 5 -3 12 -1 16 5 3 5 9 10 12 10 3 0 0 -7
-7 -15z"/>
<path d="M2710 1786 c0 -2 8 -10 18 -17 15 -13 16 -12 3 4 -13 16 -21 21 -21
13z"/>
<path d="M2300 1776 c0 -2 7 -7 16 -10 8 -3 12 -2 9 4 -6 10 -25 14 -25 6z"/>
<path d="M2968 1753 c7 -3 16 -2 19 1 4 3 -2 6 -13 5 -11 0 -14 -3 -6 -6z"/>
<path d="M5685 1750 c-3 -5 -1 -10 4 -10 6 0 11 5 11 10 0 6 -2 10 -4 10 -3 0
-8 -4 -11 -10z"/>
<path d="M2755 1744 c44 -39 63 -53 85 -58 18 -5 13 0 -15 18 -61 38 -81 49
-70 40z"/>
<path d="M6058 1723 c20 -8 -35 -45 -57 -38 -11 3 -22 1 -26 -5 -3 -5 1 -10 9
-10 9 0 16 -5 16 -10 0 -7 -15 -9 -38 -7 -42 5 -86 -16 -57 -27 9 -3 13 -2 10
4 -3 5 20 7 58 4 55 -4 66 -1 82 17 17 17 17 22 5 30 -13 8 -12 11 3 20 18 11
14 30 -6 28 -8 0 -8 -2 1 -6z"/>
<path d="M3402 1709 c7 -5 47 -8 88 -8 92 1 82 6 -23 12 -44 2 -73 0 -65 -4z"/>
<path d="M5315 1706 l-50 -12 73 -1 c41 0 68 3 62 7 -9 6 -9 9 1 13 26 10 -36
5 -86 -7z"/>
<path d="M3713 1703 c9 -2 23 -2 30 0 6 3 -1 5 -18 5 -16 0 -22 -2 -12 -5z"/>
<path d="M3031 1684 c0 -11 3 -14 6 -6 3 7 2 16 -1 19 -3 4 -6 -2 -5 -13z"/>
<path d="M3628 1693 c7 -3 16 -2 19 1 4 3 -2 6 -13 5 -11 0 -14 -3 -6 -6z"/>
<path d="M3698 1683 c6 -2 18 -2 25 0 6 3 1 5 -13 5 -14 0 -19 -2 -12 -5z"/>
<path d="M5110 1680 c-36 -3 -60 -8 -55 -10 19 -8 365 -5 365 3 0 4 -35 7 -79
7 -43 0 -98 2 -122 4 -24 2 -73 0 -109 -4z"/>
<path d="M4928 1673 c6 -2 18 -2 25 0 6 3 1 5 -13 5 -14 0 -19 -2 -12 -5z"/>
<path d="M4980 1660 c0 -5 7 -10 15 -10 8 0 15 5 15 10 0 6 -7 10 -15 10 -8 0
-15 -4 -15 -10z"/>
<path d="M6095 1660 c-13 -6 -15 -9 -5 -9 8 0 22 4 30 9 18 12 2 12 -25 0z"/>
<path d="M5209 1650 c-30 -4 -64 -12 -75 -18 -18 -11 -17 -11 7 -12 41 0 59
-31 77 -129 10 -57 21 -91 29 -91 20 0 39 40 54 109 12 57 15 61 20 35 5 -23
7 -19 8 22 2 80 -22 97 -120 84z"/>
<path d="M5927 1613 c-3 -5 8 -8 23 -8 15 0 26 3 23 8 -2 4 -13 7 -23 7 -10 0
-21 -3 -23 -7z"/>
<path d="M7181 1594 c0 -11 3 -14 6 -6 3 7 2 16 -1 19 -3 4 -6 -2 -5 -13z"/>
<path d="M5165 1580 c3 -5 8 -10 11 -10 2 0 4 5 4 10 0 6 -5 10 -11 10 -5 0
-7 -4 -4 -10z"/>
<path d="M6935 1569 c-4 -6 -3 -15 3 -21 6 -6 11 -4 15 6 7 18 -9 31 -18 15z"/>
<path d="M2870 1555 c0 -8 4 -15 10 -15 5 0 7 7 4 15 -4 8 -8 15 -10 15 -2 0
-4 -7 -4 -15z"/>
<path d="M6467 1497 c15 -13 38 -30 50 -38 21 -15 16 -17 -90 -32 -61 -8 -128
-23 -147 -32 -33 -15 -34 -16 -5 -10 17 4 37 8 46 10 9 2 34 8 55 14 22 6 91
11 154 11 l115 0 -50 26 c-28 15 -54 31 -60 36 -17 16 45 -11 129 -55 l79 -42
-39 -6 -39 -6 42 -2 c23 0 50 -4 60 -7 15 -6 14 -3 -4 15 -13 12 -23 32 -23
44 0 14 -11 28 -30 39 -28 16 -35 13 -32 -13 1 -4 -7 -5 -18 -2 -11 3 -18 9
-15 13 6 9 -33 40 -50 40 -5 0 4 -9 20 -20 17 -11 25 -20 20 -20 -6 0 -15 4
-20 9 -9 9 -148 51 -168 51 -5 0 4 -10 20 -23z"/>
<path d="M2936 1375 c-3 -9 -6 -22 -5 -28 0 -7 5 -1 10 12 5 13 8 26 5 28 -2
2 -6 -3 -10 -12z"/>
<path d="M6576 1378 c-43 -4 -81 -10 -84 -12 -5 -6 161 5 167 10 10 9 -9 9
-83 2z"/>
<path d="M5620 1376 c0 -2 7 -7 16 -10 8 -3 12 -2 9 4 -6 10 -25 14 -25 6z"/>
<path d="M5945 1365 c-44 -8 -111 -14 -148 -14 -43 -1 -66 -5 -62 -11 3 -5 -2
-10 -12 -10 -15 0 -16 -2 -3 -11 11 -8 8 -9 -15 -5 -22 5 -26 4 -15 -4 9 -6
11 -13 5 -17 -5 -5 -16 -16 -23 -25 -12 -15 -8 -16 50 -13 128 9 175 17 272
46 55 16 101 31 103 33 5 5 -58 -2 -129 -13 -49 -8 -67 2 -24 13 35 9 113 45
96 44 -8 0 -51 -6 -95 -13z"/>
<path d="M6218 1373 c7 -3 16 -2 19 1 4 3 -2 6 -13 5 -11 0 -14 -3 -6 -6z"/>
<path d="M5688 1353 c6 -2 18 -2 25 0 6 3 1 5 -13 5 -14 0 -19 -2 -12 -5z"/>
<path d="M2916 1304 c-4 -14 -5 -28 -3 -31 3 -2 8 8 11 23 4 14 5 28 3 31 -3
2 -8 -8 -11 -23z"/>
<path d="M6298 1323 c7 -3 16 -2 19 1 4 3 -2 6 -13 5 -11 0 -14 -3 -6 -6z"/>
<path d="M6155 1294 c-49 -13 -72 -21 -50 -18 50 6 187 42 160 42 -11 0 -60
-11 -110 -24z"/>
<path d="M6643 1305 c0 -7 6 -11 14 -8 7 3 13 6 13 8 0 2 -6 5 -13 8 -8 3 -14
-1 -14 -8z"/>
<path d="M2841 1254 c0 -11 3 -14 6 -6 3 7 2 16 -1 19 -3 4 -6 -2 -5 -13z"/>
<path d="M5995 1260 c-27 -7 -27 -8 -5 -8 14 0 36 4 50 8 20 6 21 8 5 8 -11 0
-33 -4 -50 -8z"/>
<path d="M2896 1229 c-8 -42 0 -50 9 -9 4 17 5 34 2 36 -2 3 -7 -10 -11 -27z"/>
<path d="M2821 1234 c0 -11 3 -14 6 -6 3 7 2 16 -1 19 -3 4 -6 -2 -5 -13z"/>
<path d="M2720 1219 c0 -5 5 -7 10 -4 6 3 10 8 10 11 0 2 -4 4 -10 4 -5 0 -10
-5 -10 -11z"/>
<path d="M2829 1201 c-8 -17 -17 -31 -21 -31 -5 0 -8 -9 -8 -20 0 -34 14 -22
32 27 19 54 17 70 -3 24z"/>
<path d="M5472 1195 c-17 -37 -14 -45 4 -12 9 16 14 31 11 33 -2 2 -9 -7 -15
-21z"/>
<path d="M2870 1105 c-7 -41 -11 -77 -8 -80 2 -2 10 30 17 71 7 42 11 78 8 80
-2 2 -10 -30 -17 -71z"/>
<path d="M5435 1110 c-4 -12 -29 -51 -56 -86 -34 -45 -44 -64 -32 -62 17 3
109 155 100 164 -3 3 -8 -4 -12 -16z"/>
<path d="M5202 1075 c-7 -14 -12 -31 -12 -38 1 -7 7 3 16 22 17 39 13 54 -4
16z"/>
<path d="M2551 1075 c0 -5 6 -21 14 -35 8 -14 14 -20 14 -15 0 6 -6 21 -14 35
-8 14 -14 21 -14 15z"/>
<path d="M2503 1035 c5 -25 1 -32 -20 -42 -14 -7 -29 -10 -33 -8 -4 3 -10 -7
-13 -20 -2 -14 -2 -23 1 -21 10 10 43 -16 38 -30 -3 -8 0 -14 7 -14 8 0 7 -4
-3 -11 -11 -8 -9 -9 10 -3 43 12 116 43 102 43 -7 1 -10 6 -7 11 3 6 2 10 -3
10 -5 0 -17 18 -27 40 -10 22 -27 47 -38 57 -20 18 -20 17 -14 -12z m57 -95
c0 -11 -7 -23 -15 -27 -21 -8 -24 -2 -14 25 10 28 29 29 29 2z"/>
<path d="M5576 1043 c-6 -14 -5 -15 5 -6 7 7 10 15 7 18 -3 3 -9 -2 -12 -12z"/>
<path d="M2446 1034 c-4 -9 -4 -19 -1 -22 2 -3 7 3 11 12 4 9 4 19 1 22 -2 3
-7 -3 -11 -12z"/>
<path d="M5535 1010 c-3 -6 -2 -10 4 -10 5 0 12 -9 16 -20 3 -10 22 -35 41
-54 34 -34 34 -34 40 -11 11 42 1 70 -26 73 -14 2 -30 9 -35 15 -13 16 -33 19
-40 7z"/>
<path d="M2709 991 c-13 -10 -34 -21 -46 -25 -11 -4 -27 -14 -35 -23 -7 -10
13 -3 50 17 34 18 62 37 62 41 0 13 -4 11 -31 -10z"/>
<path d="M2845 940 c-4 -39 -5 -73 -2 -76 2 -3 8 27 11 67 4 39 5 73 3 76 -3
2 -8 -28 -12 -67z"/>
<path d="M3033 975 c0 -22 2 -30 4 -17 2 12 2 30 0 40 -3 9 -5 -1 -4 -23z"/>
<path d="M2150 967 c0 -7 14 -23 30 -35 19 -15 30 -32 31 -50 2 -24 2 -24 6
-4 6 31 -28 101 -49 102 -10 0 -18 -6 -18 -13z"/>
<path d="M2356 944 c-10 -25 1 -29 14 -5 6 12 7 21 1 21 -5 0 -12 -7 -15 -16z"/>
<path d="M5656 922 c-10 -29 3 -92 14 -71 4 8 5 32 1 54 -6 35 -8 37 -15 17z"/>
<path d="M3022 905 c0 -16 2 -22 5 -12 2 9 2 23 0 30 -3 6 -5 -1 -5 -18z"/>
<path d="M3011 855 c-1 -11 -4 -31 -6 -45 l-6 -25 11 25 c6 13 9 33 7 45 -4
19 -4 19 -6 0z"/>
<path d="M2380 850 c-8 -5 -10 -10 -5 -10 6 0 17 5 25 10 8 5 11 10 5 10 -5 0
-17 -5 -25 -10z"/>
<path d="M2330 830 c-8 -5 -10 -10 -5 -10 6 0 17 5 25 10 8 5 11 10 5 10 -5 0
-17 -5 -25 -10z"/>
<path d="M5720 809 c0 -5 5 -7 10 -4 6 3 10 8 10 11 0 2 -4 4 -10 4 -5 0 -10
-5 -10 -11z"/>
<path d="M1850 800 c0 -5 5 -10 10 -10 6 0 10 -8 10 -18 0 -21 30 -52 50 -52
10 0 9 5 -3 18 -10 10 -17 25 -17 33 0 8 -5 20 -12 27 -15 15 -38 16 -38 2z"/>
<path d="M5656 737 c3 -10 9 -15 12 -12 3 3 0 11 -7 18 -10 9 -11 8 -5 -6z"/>
<path d="M5721 734 c7 -9 5 -15 -8 -23 -10 -6 -13 -11 -7 -11 6 0 20 10 32 23
l22 23 -25 0 c-18 0 -21 -3 -14 -12z"/>
<path d="M4167 729 c7 -7 15 -10 18 -7 3 3 -2 9 -12 12 -14 6 -15 5 -6 -5z"/>
<path d="M5920 661 c0 -11 4 -22 9 -25 5 -3 9 6 9 19 0 14 -4 25 -9 25 -5 0
-9 -9 -9 -19z"/>
<path d="M4360 570 c0 -5 7 -10 15 -10 8 0 15 5 15 10 0 6 -7 10 -15 10 -8 0
-15 -4 -15 -10z"/>
<path d="M6360 301 c0 -10 31 -31 45 -31 11 0 -5 20 -26 30 -12 7 -19 7 -19 1z"/>
<path d="M911 273 c0 -6 -4 -20 -7 -30 -5 -14 -4 -15 5 -7 7 7 11 20 8 30 -3
11 -5 14 -6 7z"/>
<path d="M6358 255 c-3 -49 -2 -59 8 -62 6 -2 16 7 22 19 l12 23 -6 -22 c-6
-24 9 -32 22 -12 3 6 -8 25 -25 42 -28 28 -31 29 -33 12z"/>
<path d="M1332 188 c-18 -18 -15 -27 8 -21 11 3 20 12 20 19 0 17 -12 18 -28
2z"/>
<path d="M704 126 c-4 -19 -14 -25 -50 -31 -24 -3 -53 -3 -64 0 -11 4 -20 2
-20 -4 0 -6 -8 -11 -17 -10 -12 0 -13 2 -5 6 9 3 6 10 -10 24 -27 25 -52 21
-56 -9 -3 -17 2 -22 20 -23 21 0 22 -1 3 -8 -36 -14 -107 -22 -100 -11 3 6 0
7 -9 4 -9 -3 -16 -12 -16 -18 0 -7 -26 -19 -57 -28 -55 -15 -28 -16 512 -16
l570 0 -110 23 c-173 37 -302 47 -528 44 -212 -4 -222 3 -30 21 154 14 362 12
477 -5 110 -17 122 -18 114 -9 -17 16 -213 34 -380 34 -180 0 -186 1 -181 20
4 17 0 20 -26 20 -24 0 -32 -5 -37 -24z"/>
<path d="M146 99 c-15 -26 -16 -33 -5 -40 19 -12 32 -6 46 21 25 51 -12 68
-41 19z"/>
<path d="M400 115 c-10 -13 -9 -15 9 -15 11 0 21 4 21 9 0 18 -18 21 -30 6z"/>
<path d="M6460 110 c0 -5 6 -13 13 -17 16 -11 46 -49 30 -39 -7 4 -21 3 -30
-3 -16 -8 -15 -11 11 -21 16 -6 30 -9 31 -8 2 2 6 19 10 39 6 31 4 36 -20 47
-31 14 -45 15 -45 2z"/>
<path d="M6411 75 c0 -5 13 -26 29 -45 16 -19 30 -30 30 -25 0 6 -13 26 -30
45 -16 19 -29 31 -29 25z"/>
<path d="M217 54 c-10 -11 3 -24 24 -24 10 0 19 7 19 15 0 15 -31 21 -43 9z"/>
<path d="M6568 25 c-4 -20 -1 -25 14 -25 14 0 18 5 14 16 -3 9 -6 20 -6 25 0
20 -18 7 -22 -16z"/>
<path d="M6660 16 c0 -11 9 -16 26 -16 31 0 28 23 -4 28 -15 2 -22 -2 -22 -12z"/>
</g>
</svg>
