<?xml version="1.0" standalone="no"?>
<!DOCTYPE svg PUBLIC "-//W3C//DTD SVG 20010904//EN"
 "http://www.w3.org/TR/2001/REC-SVG-20010904/DTD/svg10.dtd">
<svg version="1.0" xmlns="http://www.w3.org/2000/svg"
 width="512.000000pt" height="512.000000pt" viewBox="0 0 512.000000 512.000000"
 preserveAspectRatio="xMidYMid meet">

<g transform="translate(0.000000,512.000000) scale(0.100000,-0.100000)"
fill="#000000" stroke="none">
<path d="M481 5106 c-48 -27 -50 -42 -51 -343 l0 -283 320 0 320 0 0 270 c0
299 -4 326 -59 354 -41 22 -492 23 -530 2z"/>
<path d="M3959 4901 c-43 -14 -74 -39 -97 -80 -21 -37 -22 -50 -22 -295 l0
-256 536 0 535 0 -3 263 -3 264 -28 37 c-57 74 -35 71 -487 73 -223 1 -417 -2
-431 -6z"/>
<path d="M326 4260 c-41 -13 -94 -68 -106 -110 -13 -46 -13 -574 0 -620 12
-45 65 -97 111 -110 18 -6 71 -10 116 -10 l83 0 0 -697 c0 -744 6 -898 45
-1088 69 -340 241 -686 469 -940 l35 -40 -49 101 c-28 56 -68 155 -90 221
-108 324 -112 707 -10 1025 l30 95 0 660 0 661 103 4 c119 4 165 24 197 89 19
35 20 60 20 339 0 340 -3 355 -77 401 l-38 24 -405 2 c-223 1 -418 -2 -434 -7z"/>
<path d="M3712 4033 c-66 -32 -77 -61 -80 -218 -4 -171 7 -235 60 -344 77
-157 237 -280 406 -312 l63 -12 -4 -661 c-4 -629 -5 -666 -25 -760 -12 -55
-34 -136 -49 -180 l-28 -81 -7 120 c-27 472 -277 899 -679 1162 -437 285
-1004 317 -1471 83 -415 -209 -697 -572 -800 -1031 -20 -90 -23 -130 -23 -304
1 -168 5 -216 23 -302 64 -295 197 -539 412 -753 324 -325 753 -477 1215 -431
271 27 496 90 722 200 651 319 1078 948 1133 1671 5 74 10 389 10 700 l0 566
73 17 c115 27 192 70 280 158 62 61 85 94 116 160 50 106 64 185 59 342 -3
139 -11 159 -78 205 l-33 22 -631 0 c-561 0 -635 -2 -664 -17z m-890 -1507
c508 -130 853 -621 798 -1133 -49 -459 -365 -824 -810 -936 -122 -31 -378 -31
-500 0 -413 104 -723 435 -801 853 -18 95 -15 300 5 394 95 443 446 775 892
846 103 16 307 4 416 -24z"/>
</g>
</svg>
