<?xml version="1.0" standalone="no"?>
<!DOCTYPE svg PUBLIC "-//W3C//DTD SVG 20010904//EN"
 "http://www.w3.org/TR/2001/REC-SVG-20010904/DTD/svg10.dtd">
<svg version="1.0" xmlns="http://www.w3.org/2000/svg"
 width="512.000000pt" height="512.000000pt" viewBox="0 0 512.000000 512.000000"
 preserveAspectRatio="xMidYMid meet">

<g transform="translate(0.000000,512.000000) scale(0.100000,-0.100000)"
fill="#000000" stroke="none">
<path d="M3670 4379 c-156 -30 -293 -163 -335 -324 -60 -234 90 -480 326 -534
26 -6 241 -11 537 -11 l492 0 0 155 0 155 215 0 215 0 0 150 0 150 -215 0
-215 0 0 135 0 135 -487 -1 c-269 -1 -508 -5 -533 -10z"/>
<path d="M702 4089 c-170 -28 -320 -107 -447 -234 -119 -120 -177 -220 -222
-386 -27 -99 -24 -300 5 -404 82 -289 302 -505 597 -587 l80 -23 1855 -5 1855
-5 53 -22 c219 -89 341 -278 342 -525 0 -112 -13 -175 -57 -267 -65 -137 -209
-249 -361 -280 -37 -8 -405 -11 -1193 -11 l-1139 0 7 -42 c5 -24 8 -91 7 -151
l-1 -107 1146 0 c1080 0 1151 1 1237 19 304 63 548 298 630 606 26 98 26 371
0 465 -80 287 -267 487 -551 587 l-80 28 -1860 5 -1860 5 -66 22 c-246 84
-398 325 -361 574 28 194 156 348 350 422 l57 22 1155 3 1155 2 0 150 0 150
-1140 -1 c-627 -1 -1164 -5 -1193 -10z"/>
<path d="M430 1455 l0 -155 -215 0 -215 0 0 -150 0 -150 215 0 215 0 0 -135 0
-135 479 0 c279 0 500 4 531 10 83 16 155 54 221 116 72 70 116 154 132 253
33 219 -117 440 -334 490 -26 6 -241 11 -536 11 l-493 0 0 -155z"/>
</g>
</svg>
